<svg width="862" height="615" viewBox="0 0 862 615" fill="none" xmlns="http://www.w3.org/2000/svg">
<path d="M464.609 144.764C463.882 144.764 463.23 144.254 463.078 143.514L460.306 130.02C460.132 129.173 460.676 128.346 461.523 128.171C462.367 127.996 463.195 128.542 463.368 129.389L466.142 142.883C466.316 143.73 465.772 144.557 464.925 144.732C464.82 144.754 464.712 144.764 464.609 144.764Z" fill="#DEE5DC"/>
<path d="M479.959 138.408C479.232 138.408 478.58 137.898 478.427 137.158L475.656 123.664C475.482 122.818 476.026 121.99 476.873 121.816C477.717 121.64 478.545 122.187 478.718 123.034L481.492 136.527C481.666 137.374 481.122 138.202 480.275 138.375C480.17 138.398 480.062 138.408 479.959 138.408Z" fill="#DEE5DC"/>
<path d="M494.049 135.506C493.325 135.506 492.673 134.996 492.52 134.256L489.749 120.763C489.573 119.915 490.119 119.088 490.963 118.913C491.81 118.739 492.635 119.284 492.811 120.131L495.583 133.624C495.756 134.472 495.212 135.299 494.368 135.474C494.26 135.496 494.155 135.506 494.049 135.506Z" fill="#DEE5DC"/>
<path d="M509.863 131.612C509.136 131.612 508.487 131.102 508.332 130.361L505.56 116.868C505.387 116.021 505.931 115.193 506.777 115.02C507.624 114.844 508.449 115.391 508.625 116.237L511.397 129.731C511.57 130.577 511.026 131.405 510.18 131.579C510.074 131.601 509.967 131.612 509.863 131.612Z" fill="#DEE5DC"/>
<path d="M524.336 127.353C523.612 127.353 522.96 126.844 522.807 126.103L520.033 112.61C519.86 111.763 520.404 110.936 521.25 110.761C522.097 110.586 522.922 111.132 523.098 111.979L525.87 125.472C526.043 126.319 525.499 127.146 524.653 127.32C524.547 127.343 524.442 127.353 524.336 127.353Z" fill="#DEE5DC"/>
<path d="M540.265 124.073C539.541 124.073 538.889 123.563 538.736 122.823L535.965 109.329C535.791 108.482 536.335 107.655 537.182 107.481C538.028 107.306 538.854 107.852 539.029 108.699L541.801 122.192C541.972 123.039 541.428 123.866 540.584 124.041C540.476 124.063 540.371 124.073 540.265 124.073Z" fill="#DEE5DC"/>
<path d="M554.358 121.172C553.631 121.172 552.979 120.663 552.827 119.922L550.055 106.429C549.882 105.582 550.426 104.754 551.272 104.58C552.116 104.404 552.944 104.951 553.12 105.798L555.892 119.291C556.065 120.138 555.521 120.966 554.675 121.14C554.569 121.162 554.461 121.172 554.358 121.172Z" fill="#DEE5DC"/>
<path d="M570.404 118.508C569.678 118.508 569.026 117.998 568.873 117.257L566.102 103.764C565.928 102.917 566.472 102.09 567.319 101.916C568.163 101.74 568.991 102.287 569.166 103.134L571.938 116.627C572.112 117.473 571.568 118.301 570.721 118.475C570.616 118.497 570.508 118.508 570.404 118.508Z" fill="#DEE5DC"/>
<path d="M584.73 116.837C584.003 116.837 583.353 116.327 583.198 115.586L580.427 102.093C580.253 101.246 580.797 100.418 581.644 100.244C582.49 100.069 583.316 100.616 583.492 101.462L586.263 114.955C586.437 115.802 585.893 116.63 585.046 116.804C584.941 116.827 584.833 116.837 584.73 116.837Z" fill="#DEE5DC"/>
<path d="M600.661 113.557C599.934 113.557 599.282 113.047 599.13 112.306L596.358 98.8129C596.185 97.9664 596.729 97.1385 597.575 96.9646C598.422 96.7885 599.247 97.3357 599.423 98.1824L602.195 111.676C602.368 112.522 601.824 113.35 600.978 113.524C600.87 113.546 600.764 113.557 600.661 113.557Z" fill="#DEE5DC"/>
<path d="M615.333 113.732C614.606 113.732 613.954 113.222 613.802 112.482L611.03 98.9882C610.857 98.1411 611.403 97.3139 612.247 97.1399C613.094 96.9639 613.921 97.5113 614.095 98.3577L616.867 111.851C617.04 112.698 616.494 113.525 615.65 113.699C615.542 113.721 615.436 113.732 615.333 113.732Z" fill="#DEE5DC"/>
<path d="M458.179 137.961C457.52 137.961 456.908 137.543 456.692 136.884C456.423 136.062 456.871 135.177 457.691 134.908C458.718 134.571 560.636 101.327 618.975 101.327C619.235 101.327 619.491 101.327 619.751 101.329C620.614 101.333 621.31 102.093 621.306 102.957C621.301 103.819 620.602 104.57 619.742 104.57C619.739 104.57 619.737 104.57 619.735 104.57C619.481 104.57 619.223 104.513 618.968 104.513C561.13 104.513 459.687 137.575 458.664 137.911C458.505 137.964 458.341 137.961 458.179 137.961Z" fill="#DEE5DC"/>
<path d="M456.153 142.041C456.153 142.041 654.214 84.5327 781.295 108.327V211.645L456.153 142.041Z" fill="#DEE5DC"/>
<path d="M75.0756 379.993V124.278C75.0756 124.278 560.068 117.067 781.295 211.366V360.024L75.0756 379.993Z" fill="#EAEFE8"/>
<path d="M799.435 220.18C799.231 220.18 799.022 220.14 798.821 220.054C723.938 188.076 593.331 158.45 466.079 144.58C465.221 144.486 464.602 143.714 464.693 142.854C464.787 141.995 465.554 141.374 466.419 141.467C593.95 155.368 724.907 185.085 800.049 217.175C800.844 217.514 801.213 218.433 800.875 219.228C800.622 219.824 800.042 220.18 799.435 220.18Z" fill="#161616"/>
<path d="M75.0756 379.784C75.0756 379.784 407.231 267.288 781.295 306.93V525.074L75.0756 518.828V379.784Z" fill="#EAEFE8"/>
<path d="M799.437 308.387C799.365 308.387 799.294 308.383 799.219 308.373C781.058 305.847 762.418 303.66 743.823 301.871C742.962 301.789 742.334 301.024 742.416 300.162C742.498 299.303 743.258 298.667 744.121 298.754C762.763 300.547 781.445 302.74 799.651 305.272C800.507 305.392 801.102 306.183 800.985 307.038C800.875 307.822 800.204 308.387 799.437 308.387Z" fill="#161616"/>
<path d="M720.547 299.829C720.508 299.829 720.465 299.827 720.423 299.824C697.961 298.052 674.899 296.796 651.872 296.087C651.009 296.061 650.331 295.383 650.357 294.519C650.383 293.672 651.077 293.047 651.919 293.047C651.935 293.047 651.951 293.047 651.968 293.047C675.044 293.674 698.158 294.972 720.669 296.747C721.53 296.815 722.172 297.547 722.104 298.409C722.039 299.228 721.356 299.829 720.547 299.829Z" fill="#161616"/>
<path d="M252.931 332.398C252.204 332.398 251.554 331.886 251.402 331.147C251.228 330.3 251.774 329.471 252.621 329.3C356.47 308.035 459.842 295.794 559.859 292.909C560.72 292.895 561.442 293.564 561.466 294.428C561.491 295.294 560.811 296.015 559.948 296.038C460.111 298.918 356.921 311.141 253.247 332.365C253.142 332.386 253.036 332.398 252.931 332.398Z" fill="#161616"/>
<path d="M46.3016 388.081C45.6659 388.081 45.0686 387.689 44.8346 387.058C44.5349 386.248 44.9486 385.349 45.7578 385.046C45.9255 384.985 62.799 378.748 92.5291 369.674C119.954 361.303 164.258 348.731 219.579 336.37C220.425 336.184 221.258 336.712 221.445 337.558C221.633 338.4 221.103 339.238 220.259 339.426C165.051 351.759 120.841 364.305 93.475 372.657C63.8226 381.708 47.0109 387.922 46.8437 387.983C46.6655 388.051 46.4824 388.081 46.3016 388.081Z" fill="#161616"/>
<path d="M388.95 297.77L343.508 483.003L382.891 490.256L416.974 361.28C416.974 361.28 431.869 364.643 447.015 360.27L485.643 480.979L522.91 464.555L466.203 293.221" fill="#946D42"/>
<path d="M388.95 299.336C388.509 299.336 388.085 299.148 387.787 298.817C387.47 298.465 387.33 297.984 387.409 297.514L396.245 244.31C396.318 243.862 396.585 243.467 396.972 243.23C397.396 242.97 407.573 236.836 423.669 235.566C439.769 234.295 453.613 240.101 454.195 240.348C454.648 240.54 454.983 240.937 455.1 241.416L466.358 287.29C466.564 288.13 466.051 288.977 465.211 289.184C464.372 289.39 463.525 288.876 463.321 288.036L452.256 242.946C449.257 241.805 437.23 237.636 423.915 238.688C410.753 239.726 401.58 244.27 399.209 245.561L390.814 296.092L466.112 291.66C466.972 291.604 467.713 292.268 467.765 293.13C467.817 293.993 467.158 294.735 466.295 294.785L389.044 299.334C389.011 299.336 388.98 299.336 388.95 299.336Z" fill="#161616"/>
<path d="M353.882 440.718L389.642 464.712L371.661 530.184L338.949 498.392L353.882 440.718Z" fill="#FAFCFA"/>
<path d="M371.661 531.75C371.257 531.75 370.866 531.595 370.57 531.306L337.861 499.516C337.458 499.124 337.296 498.544 337.437 498L352.369 440.326C352.496 439.833 352.852 439.434 353.326 439.253C353.8 439.072 354.332 439.133 354.752 439.417L390.512 463.412C391.07 463.787 391.328 464.478 391.149 465.128L373.169 530.599C373.021 531.132 372.603 531.548 372.071 531.693C371.935 531.731 371.797 531.75 371.661 531.75ZM340.691 497.904L370.854 527.217L387.834 465.384L354.843 443.246L340.691 497.904Z" fill="#161616"/>
<path d="M321.794 483.852C321.794 483.852 333.6 476.313 343.494 482.552C353.387 488.789 367.063 503.082 367.063 503.082" fill="#FAFCFA"/>
<path d="M367.063 504.647C366.652 504.647 366.242 504.485 365.932 504.164C365.799 504.021 352.275 489.937 342.661 483.876C338.961 481.543 334.503 481.033 329.417 482.355C325.494 483.376 322.661 485.158 322.633 485.174C321.902 485.639 320.938 485.423 320.474 484.693C320.012 483.963 320.225 482.998 320.952 482.533C321.081 482.451 324.16 480.503 328.535 479.35C334.445 477.789 339.906 478.439 344.326 481.226C354.269 487.495 367.628 501.408 368.193 501.997C368.788 502.622 368.767 503.612 368.144 504.211C367.841 504.502 367.452 504.647 367.063 504.647Z" fill="#161616"/>
<path d="M373.183 528.151C375.697 533.672 350.442 541.414 337.657 528.529C324.812 515.579 309.628 491.427 319.015 484.418C328.402 477.411 363.144 506.077 373.183 528.151Z" fill="#161616"/>
<path d="M321.794 497.432C321.299 497.432 320.814 497.197 320.509 496.758C320.016 496.049 320.19 495.075 320.9 494.58L328.969 488.972C329.677 488.479 330.651 488.655 331.145 489.364C331.638 490.075 331.462 491.049 330.751 491.542L322.685 497.152C322.413 497.343 322.101 497.432 321.794 497.432Z" fill="#EAEFE8"/>
<path d="M324.823 502.993C324.338 502.993 323.86 502.765 323.555 502.34C323.048 501.641 323.208 500.662 323.909 500.157L335.512 491.791C336.213 491.286 337.191 491.444 337.695 492.148C338.199 492.847 338.039 493.826 337.341 494.331L325.736 502.697C325.459 502.896 325.14 502.993 324.823 502.993Z" fill="#EAEFE8"/>
<path d="M327.853 508.551C327.361 508.551 326.875 508.319 326.57 507.884C326.076 507.176 326.247 506.201 326.955 505.704L339.212 497.11C339.92 496.615 340.896 496.786 341.39 497.495C341.885 498.204 341.714 499.178 341.006 499.676L328.749 508.269C328.477 508.459 328.163 508.551 327.853 508.551Z" fill="#EAEFE8"/>
<path d="M342.148 526.398C341.676 526.398 341.212 526.187 340.905 525.783C340.38 525.097 340.511 524.114 341.198 523.59L353.497 514.18C354.184 513.654 355.164 513.788 355.69 514.476C356.215 515.161 356.084 516.145 355.397 516.668L343.097 526.076C342.814 526.294 342.478 526.398 342.148 526.398Z" fill="#EAEFE8"/>
<path d="M346.692 530.442C346.221 530.442 345.757 530.231 345.449 529.827C344.924 529.139 345.055 528.158 345.742 527.632L358.042 518.224C358.731 517.699 359.711 517.83 360.234 518.518C360.759 519.206 360.628 520.187 359.941 520.713L347.642 530.121C347.358 530.337 347.023 530.442 346.692 530.442Z" fill="#EAEFE8"/>
<path d="M512.98 434.838L478.744 460.966L500.674 525.222L531.39 491.498L512.98 434.838Z" fill="#FAFCFA"/>
<path d="M500.674 526.785C500.568 526.785 500.46 526.776 500.355 526.752C499.813 526.64 499.372 526.25 499.194 525.726L477.264 461.473C477.046 460.835 477.262 460.13 477.797 459.722L512.032 433.591C512.436 433.284 512.963 433.19 513.446 433.343C513.93 433.493 514.309 433.871 514.466 434.352L532.876 491.012C533.05 491.547 532.926 492.134 532.546 492.552L501.83 526.276C501.53 526.604 501.107 526.785 500.674 526.785ZM480.589 461.527L501.297 522.21L529.622 491.115L512.173 437.42L480.589 461.527Z" fill="#161616"/>
<path d="M547.631 475.937C547.631 475.937 535.388 469.132 525.891 475.961C516.394 482.789 503.614 497.887 503.614 497.887" fill="#FAFCFA"/>
<path d="M503.612 499.453C503.255 499.453 502.897 499.333 502.604 499.082C501.942 498.523 501.863 497.535 502.421 496.875C502.948 496.253 515.437 481.552 524.979 474.691C529.223 471.639 534.635 470.658 540.629 471.853C545.065 472.74 548.257 474.496 548.39 474.569C549.146 474.989 549.418 475.942 548.998 476.698C548.578 477.454 547.626 477.724 546.873 477.308C546.845 477.292 543.909 475.686 539.93 474.907C534.771 473.897 530.356 474.679 526.805 477.233C517.576 483.869 504.934 498.751 504.808 498.901C504.498 499.265 504.057 499.453 503.612 499.453Z" fill="#161616"/>
<path d="M499.03 523.285C496.859 528.949 522.535 535.139 534.511 521.497C546.547 507.788 560.232 482.756 550.44 476.334C540.643 469.912 507.708 500.64 499.03 523.285Z" fill="#161616"/>
<path d="M548.36 489.493C548.083 489.493 547.802 489.42 547.549 489.268L539.154 484.16C538.417 483.709 538.183 482.747 538.631 482.007C539.079 481.268 540.043 481.036 540.781 481.484L549.174 486.592C549.912 487.04 550.147 488.003 549.699 488.742C549.403 489.225 548.888 489.493 548.36 489.493Z" fill="#EAEFE8"/>
<path d="M545.675 495.228C545.389 495.228 545.101 495.15 544.84 494.986L532.75 487.345C532.021 486.883 531.802 485.916 532.262 485.186C532.724 484.453 533.69 484.235 534.419 484.697L546.51 492.34C547.241 492.8 547.459 493.768 546.998 494.5C546.7 494.972 546.193 495.228 545.675 495.228Z" fill="#EAEFE8"/>
<path d="M542.988 500.962C542.709 500.962 542.427 500.889 542.172 500.732L529.415 492.901C528.679 492.448 528.447 491.486 528.899 490.749C529.352 490.012 530.316 489.782 531.05 490.232L543.806 498.063C544.545 498.516 544.775 499.479 544.322 500.216C544.026 500.697 543.513 500.962 542.988 500.962Z" fill="#EAEFE8"/>
<path d="M529.805 519.647C529.504 519.647 529.202 519.56 528.935 519.382L516.084 510.739C515.367 510.258 515.177 509.286 515.66 508.567C516.141 507.849 517.114 507.659 517.829 508.14L530.679 516.783C531.394 517.264 531.584 518.236 531.104 518.954C530.803 519.405 530.309 519.647 529.805 519.647Z" fill="#EAEFE8"/>
<path d="M525.516 523.959C525.216 523.959 524.911 523.874 524.643 523.694L511.796 515.051C511.078 514.57 510.888 513.598 511.369 512.879C511.852 512.161 512.823 511.973 513.54 512.452L526.388 521.095C527.106 521.576 527.296 522.548 526.815 523.266C526.512 523.717 526.018 523.959 525.516 523.959Z" fill="#EAEFE8"/>
<path d="M416.974 363.35C407.89 363.35 403.95 357.463 403.786 357.212C403.315 356.489 403.521 355.519 404.244 355.045C404.963 354.576 405.93 354.778 406.403 355.496C406.544 355.705 409.663 360.221 416.972 360.221C417.837 360.221 418.536 360.921 418.536 361.787C418.536 362.65 417.837 363.35 416.974 363.35Z" fill="#161616"/>
<path d="M447.955 362.388C447.28 362.388 446.872 362.336 446.801 362.324C445.945 362.207 445.348 361.418 445.467 360.561C445.584 359.707 446.368 359.113 447.221 359.223C447.517 359.263 453.925 359.967 460.538 353.238C461.143 352.623 462.132 352.613 462.749 353.219C463.364 353.827 463.373 354.817 462.766 355.432C456.638 361.672 450.462 362.388 447.955 362.388Z" fill="#161616"/>
<path d="M364.295 398.269L378.337 401.851L383.385 381.631L369.508 377.023L364.295 398.269Z" fill="#B2BCAF"/>
<path d="M385.336 386.971H380.958C380.096 386.971 379.394 386.272 379.394 385.408C379.394 384.542 380.096 383.842 380.958 383.842H385.336C386.202 383.842 386.901 384.542 386.901 385.408C386.901 386.272 386.202 386.971 385.336 386.971Z" fill="#161616"/>
<path d="M381.364 402.405C381.066 402.405 380.764 402.32 380.499 402.142L376.709 399.614C375.992 399.135 375.797 398.163 376.276 397.443C376.756 396.724 377.725 396.529 378.445 397.011L382.234 399.536C382.952 400.018 383.146 400.989 382.666 401.708C382.365 402.161 381.871 402.405 381.364 402.405Z" fill="#161616"/>
<path d="M383.135 394.318C383.008 394.318 382.881 394.302 382.755 394.269L378.714 393.257C377.877 393.048 377.366 392.199 377.577 391.361C377.786 390.52 378.639 390.009 379.474 390.222L383.512 391.234C384.352 391.443 384.86 392.293 384.652 393.131C384.474 393.842 383.836 394.318 383.135 394.318Z" fill="#161616"/>
<path d="M405.09 242.233L403.807 297.909C403.807 297.909 404.466 304.296 409.996 303.96C415.523 303.622 415.363 297.226 415.363 297.226V239.596C415.363 239.596 407.318 241.373 405.09 242.233Z" fill="#946D42"/>
<path d="M409.302 305.538C404.122 305.538 402.354 300.683 402.145 298.033C402.077 297.172 402.719 296.418 403.582 296.35C404.438 296.277 405.193 296.923 405.261 297.782C405.306 298.284 405.822 302.646 409.639 302.397C413.473 302.165 413.403 297.796 413.384 297.299C413.347 296.437 414.012 295.707 414.873 295.667C415.703 295.632 416.465 296.289 416.507 297.151C416.643 299.897 415.424 305.181 409.829 305.524C409.649 305.533 409.473 305.538 409.302 305.538Z" fill="#161616"/>
<path d="M409.405 298.672C410.207 298.672 410.856 298.021 410.856 297.219C410.856 296.416 410.207 295.766 409.405 295.766C408.603 295.766 407.953 296.416 407.953 297.219C407.953 298.021 408.603 298.672 409.405 298.672Z" fill="#161616"/>
<path d="M446.79 240.552L450.598 296.115C450.598 296.115 450.249 302.524 444.71 302.439C439.171 302.357 439.056 295.958 439.056 295.958L436.43 238.388C436.43 238.388 444.525 239.796 446.79 240.552Z" fill="#946D42"/>
<path d="M445.054 303.995C445.01 303.995 444.965 303.995 444.918 303.993C439.316 303.909 437.856 298.646 437.867 295.895C437.87 295.033 438.571 294.299 439.431 294.299C439.434 294.299 439.436 294.299 439.436 294.299C440.301 294.299 440.998 295.043 440.995 295.909C440.995 296.399 441.127 300.784 444.968 300.843C448.895 300.899 449.123 296.247 449.128 296.047C449.158 295.184 449.876 294.515 450.743 294.54C451.606 294.569 452.284 295.294 452.256 296.158C452.164 298.883 450.542 303.995 445.054 303.995Z" fill="#161616"/>
<path d="M444.965 297.134C445.767 297.134 446.417 296.482 446.417 295.679C446.417 294.876 445.767 294.226 444.965 294.226C444.163 294.226 443.511 294.876 443.511 295.679C443.511 296.482 444.163 297.134 444.965 297.134Z" fill="#161616"/>
<path d="M410.005 239.906L414.524 253.413L420.754 237.566C420.752 237.566 414.078 238.531 410.005 239.906Z" fill="#F9FCF7"/>
<path d="M414.524 254.849C414.51 254.849 414.496 254.849 414.484 254.849C413.825 254.849 413.248 254.469 413.039 253.847L408.521 240.371C408.249 239.552 408.687 238.681 409.503 238.406C413.665 237.003 420.252 236.05 420.529 236.01C421.082 235.928 421.633 236.153 421.978 236.59C422.323 237.029 422.412 237.618 422.208 238.139L415.978 253.922C415.743 254.521 415.164 254.849 414.524 254.849ZM411.998 240.934L414.641 248.836L418.29 239.559C416.486 239.881 414.069 240.359 411.998 240.934Z" fill="#161616"/>
<path d="M441.23 238.686L437.251 252.361L430.396 236.775C430.396 236.775 437.105 237.474 441.23 238.686Z" fill="#F9FCF7"/>
<path d="M437.251 253.927C436.634 253.927 436.071 253.563 435.82 252.993L428.966 237.406C428.741 236.895 428.804 236.303 429.132 235.852C429.461 235.402 429.998 235.16 430.558 235.219C430.837 235.247 437.457 235.946 441.671 237.183C442.498 237.428 442.972 238.294 442.731 239.122L438.751 252.798C438.568 253.429 438.008 253.88 437.354 253.922C437.319 253.925 437.283 253.927 437.251 253.927ZM432.938 238.667L436.95 247.793L439.279 239.794C437.185 239.301 434.753 238.918 432.938 238.667Z" fill="#161616"/>
<path d="M428.617 337.91C415.743 337.91 409.238 332.206 406.047 327.422C402.59 322.239 402.22 317.082 402.206 316.866C402.178 316.448 402.318 316.037 402.595 315.725C402.872 315.413 403.263 315.223 403.678 315.202L452.476 312.505C453.269 312.448 453.991 313.037 454.108 313.838C454.162 314.209 455.384 323.002 449.636 329.94C445.566 334.858 439.112 337.527 430.457 337.872C429.831 337.898 429.217 337.91 428.617 337.91ZM405.552 318.232C406.438 322.795 410.683 335.515 430.333 334.743C438.064 334.436 443.748 332.147 447.228 327.943C450.839 323.584 451.182 318.223 451.116 315.716L405.552 318.232Z" fill="#161616"/>
<path d="M425.148 233.832C418.501 233.832 412.974 231.943 408.697 228.202C400.972 221.445 400.201 211.156 400.173 210.721C400.114 209.859 400.766 209.112 401.627 209.055C402.485 209.006 403.233 209.649 403.291 210.51C403.355 211.394 405.064 232.14 427.47 230.621C445.648 229.387 445.856 215.111 445.856 214.504C445.856 213.639 446.558 212.938 447.421 212.938C448.286 212.938 448.985 213.639 448.985 214.504C448.985 220.658 444.534 232.6 427.681 233.745C426.82 233.803 425.976 233.832 425.148 233.832Z" fill="#161616"/>
<path d="M414.95 239.958C414.927 239.958 414.906 239.958 414.885 239.956C414.022 239.92 413.349 239.193 413.386 238.329L413.635 232.203C413.67 231.339 414.399 230.665 415.262 230.702C416.125 230.738 416.796 231.467 416.761 232.331L416.51 238.456C416.477 239.298 415.783 239.958 414.95 239.958Z" fill="#161616"/>
<path d="M434.803 237.402C434.026 237.402 433.353 236.824 433.253 236.036L432.669 231.493C432.559 230.635 433.163 229.85 434.019 229.741C434.868 229.628 435.661 230.236 435.771 231.094L436.355 235.637C436.465 236.493 435.86 237.277 435.002 237.388C434.936 237.397 434.868 237.402 434.803 237.402Z" fill="#161616"/>
<path d="M426.309 291.482C425.444 291.482 424.745 290.78 424.745 289.916V236.691C424.745 235.827 425.444 235.127 426.309 235.127C427.172 235.127 427.873 235.827 427.873 236.691V289.916C427.873 290.78 427.172 291.482 426.309 291.482Z" fill="#161616"/>
<path d="M397.786 246.131C397.511 246.131 397.237 246.061 396.986 245.911L372.315 231.169C371.834 230.882 371.544 230.359 371.553 229.798C371.562 229.237 371.872 228.725 372.362 228.455L398.62 213.964C399.375 213.547 400.327 213.822 400.745 214.579C401.16 215.336 400.886 216.289 400.13 216.706L376.259 229.879L398.588 243.223C399.331 243.664 399.572 244.627 399.129 245.369C398.836 245.859 398.318 246.131 397.786 246.131Z" fill="#161616"/>
<path d="M393.265 273.349C392.953 273.349 392.636 273.257 392.362 273.062L346.966 240.873C346.898 240.824 346.835 240.773 346.774 240.711C346.413 240.357 337.976 231.912 342.096 223.254C345.928 215.205 384.002 198.58 388.331 196.711C389.121 196.369 390.043 196.734 390.387 197.528C390.73 198.322 390.364 199.243 389.569 199.586C389.466 199.631 379.038 204.142 368.303 209.536C349.07 219.199 345.543 223.29 344.919 224.601C341.927 230.884 348.108 237.592 348.887 238.399L394.17 270.506C394.876 271.006 395.042 271.983 394.543 272.689C394.238 273.119 393.755 273.349 393.265 273.349Z" fill="#161616"/>
<path d="M349.628 242.409C349.039 242.409 348.477 242.075 348.212 241.505C347.844 240.723 348.181 239.791 348.962 239.425L372.453 228.407C373.239 228.041 374.168 228.379 374.533 229.161C374.899 229.944 374.564 230.876 373.781 231.242L350.289 242.258C350.076 242.359 349.851 242.409 349.628 242.409Z" fill="#161616"/>
<path d="M363.357 252.143C362.914 252.143 362.473 251.955 362.164 251.591C361.606 250.932 361.686 249.944 362.344 249.383L380.71 233.773C381.369 233.214 382.356 233.293 382.914 233.954C383.475 234.613 383.392 235.601 382.734 236.16L364.368 251.77C364.075 252.021 363.716 252.143 363.357 252.143Z" fill="#161616"/>
<path d="M457.741 244.615C457.208 244.615 456.69 244.343 456.397 243.852C455.956 243.108 456.198 242.148 456.939 241.704L479.269 228.362L455.398 215.189C454.641 214.771 454.366 213.819 454.784 213.062C455.201 212.305 456.153 212.03 456.908 212.447L483.164 226.938C483.657 227.209 483.964 227.721 483.973 228.281C483.982 228.842 483.694 229.364 483.211 229.652L458.542 244.392C458.292 244.545 458.015 244.615 457.741 244.615Z" fill="#161616"/>
<path d="M462.264 271.832C461.774 271.832 461.291 271.602 460.986 271.173C460.486 270.469 460.653 269.49 461.359 268.99L506.639 236.883C507.411 236.078 513.587 229.343 510.609 223.083C509.985 221.773 506.459 217.683 487.226 208.02C476.49 202.626 466.063 198.114 465.957 198.069C465.165 197.727 464.799 196.806 465.141 196.012C465.483 195.218 466.405 194.852 467.195 195.195C471.524 197.064 509.601 213.689 513.432 221.737C517.555 230.395 509.115 238.841 508.754 239.195C508.693 239.256 508.63 239.308 508.562 239.357L463.167 271.546C462.89 271.741 462.576 271.832 462.264 271.832Z" fill="#161616"/>
<path d="M505.901 240.892C505.678 240.892 505.453 240.843 505.237 240.742L481.746 229.725C480.965 229.359 480.627 228.427 480.993 227.644C481.359 226.861 482.29 226.523 483.073 226.891L506.564 237.909C507.345 238.275 507.683 239.207 507.317 239.988C507.052 240.557 506.489 240.892 505.901 240.892Z" fill="#161616"/>
<path d="M492.171 250.627C491.812 250.627 491.453 250.505 491.158 250.253L472.793 234.643C472.134 234.084 472.054 233.096 472.614 232.437C473.172 231.778 474.16 231.698 474.816 232.256L493.184 247.866C493.843 248.427 493.923 249.413 493.362 250.073C493.053 250.439 492.614 250.627 492.171 250.627Z" fill="#161616"/>
<path d="M429.402 217.228C408.218 217.228 390.985 202.747 390.985 184.947C390.985 167.147 408.218 152.667 429.402 152.667C450.586 152.667 467.821 167.147 467.821 184.947C467.821 202.747 450.586 217.228 429.402 217.228ZM429.402 155.797C409.944 155.797 394.111 168.874 394.111 184.947C394.111 201.021 409.944 214.097 429.402 214.097C448.863 214.097 464.693 201.021 464.693 184.947C464.693 168.874 448.863 155.797 429.402 155.797Z" fill="#161616"/>
<path d="M430.366 203.614C425.256 203.614 420.229 201.987 416.207 199.033C411.567 195.625 408.643 190.688 408.181 185.487C407.756 180.708 409.398 176.105 412.798 172.527C416.597 168.533 422.252 166.241 428.319 166.241C433.428 166.241 438.456 167.868 442.477 170.822C447.116 174.23 450.042 179.167 450.504 184.368C450.926 189.147 449.287 193.749 445.885 197.327C442.088 201.323 436.43 203.614 430.366 203.614ZM428.319 169.373C423.106 169.373 418.273 171.31 415.065 174.686C412.291 177.603 410.955 181.34 411.297 185.21C411.679 189.515 414.144 193.633 418.06 196.508C421.547 199.071 425.918 200.482 430.366 200.482C435.579 200.482 440.409 198.545 443.619 195.169C446.393 192.252 447.732 188.514 447.388 184.644C447.005 180.34 444.541 176.221 440.627 173.346C437.138 170.784 432.767 169.373 428.319 169.373Z" fill="#161616"/>
<path d="M435.262 200.113C429.948 200.113 424.548 198.294 420.051 194.99C414.927 191.226 411.721 186.05 411.255 180.79C410.908 176.874 412.16 173.199 414.784 170.441C417.769 167.299 422.248 165.57 427.39 165.57C432.701 165.57 438.104 167.388 442.602 170.692C447.723 174.456 450.931 179.631 451.397 184.891C451.745 188.806 450.492 192.482 447.871 195.24C444.883 198.383 440.404 200.113 435.262 200.113ZM427.39 168.701C423.111 168.701 419.439 170.085 417.049 172.6C415.025 174.728 414.099 177.464 414.371 180.514C414.756 184.878 417.502 189.234 421.903 192.467C425.866 195.378 430.61 196.982 435.262 196.982C439.539 196.982 443.214 195.597 445.603 193.083C447.627 190.955 448.553 188.218 448.281 185.168C447.894 180.804 445.148 176.448 440.749 173.217C436.786 170.305 432.04 168.701 427.39 168.701Z" fill="#161616"/>
<path d="M425.995 224.794H422.517C422.034 224.794 421.577 224.57 421.282 224.188C420.984 223.805 420.883 223.307 421.003 222.838L422.112 218.542C422.328 217.704 423.179 217.202 424.016 217.417C424.853 217.633 425.355 218.486 425.139 219.324L424.536 221.664H425.995C426.86 221.664 427.559 222.364 427.559 223.229C427.559 224.094 426.86 224.794 425.995 224.794Z" fill="#161616"/>
<path d="M431.398 227.233C431.651 228.616 438.177 227.023 439.073 224.525C439.966 222.026 435.59 220.011 433.712 220.769C431.829 221.526 430.776 223.84 431.398 227.233Z" fill="#161616"/>
<path d="M185.018 384.288C185.785 386.398 184.698 388.729 182.591 389.497C180.483 390.264 178.153 389.175 177.386 387.067L111.897 206.902C111.129 204.794 112.216 202.461 114.323 201.694C116.43 200.926 118.761 202.014 119.527 204.124L185.018 384.288Z" fill="#DEE5DC"/>
<path d="M181.203 391.309C178.847 391.309 176.723 389.821 175.917 387.603L110.428 207.438C109.914 206.027 109.979 204.499 110.614 203.136C111.249 201.772 112.376 200.737 113.788 200.223C114.408 199.997 115.056 199.883 115.711 199.883C118.068 199.883 120.192 201.372 120.997 203.589L186.487 383.753C187.001 385.166 186.934 386.694 186.299 388.058C185.664 389.419 184.537 390.455 183.125 390.969C182.505 391.194 181.859 391.309 181.203 391.309ZM115.711 203.014C115.421 203.014 115.134 203.065 114.857 203.165C114.231 203.394 113.73 203.853 113.449 204.458C113.168 205.062 113.138 205.739 113.367 206.366L178.855 386.532C179.213 387.516 180.157 388.178 181.203 388.178C181.493 388.178 181.78 388.126 182.057 388.027C182.683 387.797 183.183 387.34 183.464 386.736C183.746 386.131 183.776 385.452 183.548 384.823L118.058 204.659C117.7 203.674 116.758 203.014 115.711 203.014Z" fill="#161616"/>
<path d="M120.982 237.338L131.835 233.01C131.835 233.01 122.379 179.956 106.961 181.375C91.5403 182.794 120.982 237.338 120.982 237.338Z" fill="#946D42"/>
<path d="M179.609 370.397C179.609 370.397 189.609 389.229 202.654 387.236C214.593 385.408 231.775 439.61 231.775 439.61C231.775 439.61 229.001 447.83 226.367 441.579C223.736 435.328 209.45 403.694 205.024 404.395C200.599 405.095 216.417 444.91 216.417 444.91C216.417 444.91 216.014 455.692 211.103 449.117C206.192 442.539 195.084 408.017 190.198 409.435C185.313 410.855 200.977 453.091 200.977 453.091C200.977 453.091 199.931 460.975 196.182 456.607C192.434 452.236 179.839 411.649 173.981 415.343C169.619 418.092 183.123 457.332 183.123 457.332C183.123 457.332 183.924 471.426 177.711 459.283C174.826 453.647 158.015 419.388 161.172 404.872C162.789 397.433 177.851 396.271 172.296 373.063L179.609 370.397Z" fill="white"/>
<path d="M181.629 465.78C179.96 465.78 178.422 464.104 176.319 459.997C174.254 455.964 156.249 420.146 159.644 404.536C160.254 401.731 162.334 399.778 164.536 397.713C168.921 393.598 174.377 388.478 170.775 373.427C170.59 372.655 171.015 371.864 171.761 371.591L179.073 368.927C179.805 368.662 180.623 368.974 180.989 369.662C181.075 369.824 189.718 385.819 200.71 385.819C201.279 385.819 201.853 385.776 202.418 385.689C202.691 385.647 202.972 385.626 203.252 385.626C211.722 385.626 220.521 406.067 223.413 412.782C229.022 425.808 233.224 439.004 233.264 439.138C233.365 439.455 233.362 439.795 233.254 440.112C232.71 441.73 231.156 445.49 228.513 445.49C226.316 445.492 225.27 443.007 224.925 442.19C216.881 423.078 208.692 409.102 205.764 406.398C205.779 411.081 211.764 428.965 217.869 444.333C217.949 444.535 217.987 444.751 217.979 444.969C217.911 446.809 217.41 452.809 213.859 452.809C212.527 452.809 211.253 451.933 209.85 450.056C207.847 447.373 205.115 440.885 201.952 433.371C198.92 426.169 193.412 413.088 190.826 411.165C190.026 415.247 196.048 435.305 202.443 452.546C202.531 452.786 202.56 453.044 202.527 453.297C202.334 454.75 201.456 459.492 198.257 459.492C198.257 459.492 198.257 459.492 198.257 459.492C197.138 459.492 196.072 458.882 194.995 457.626C193.615 456.018 191.692 451.351 188.413 443.239C185.985 437.234 183.233 430.43 180.61 425.125C176.959 417.747 175.239 416.808 174.86 416.688C173.713 419.104 177.049 434.878 184.601 456.823C184.648 456.959 184.676 457.1 184.684 457.245C184.786 459.048 184.861 463.417 183.352 465.017C182.886 465.51 182.274 465.78 181.629 465.78ZM174.126 374.061C177.489 389.849 171.258 395.696 166.674 399.996C164.68 401.867 163.103 403.348 162.7 405.203C159.483 419.998 178.3 457.001 179.103 458.569C180.146 460.607 180.873 461.649 181.317 462.175C181.539 461.161 181.652 459.342 181.573 457.63C181.066 456.145 177.994 447.056 175.411 437.788C169.435 416.357 171.851 414.836 173.149 414.019C173.652 413.703 174.201 413.541 174.782 413.541C179.058 413.541 183.338 422.341 191.313 442.065C193.743 448.074 196.255 454.288 197.369 455.586C197.817 456.107 198.1 456.281 198.218 456.337C198.614 456.004 199.135 454.6 199.37 453.253C195.873 443.795 185.491 414.66 188.188 409.297C188.63 408.419 189.288 408.069 189.762 407.933C190.002 407.862 190.249 407.827 190.5 407.827C194.189 407.827 197.873 415.618 204.836 432.155C207.792 439.173 210.583 445.802 212.357 448.178C213.114 449.194 213.588 449.527 213.787 449.633C214.248 449.093 214.724 447.082 214.839 445.171C214.175 443.485 210.999 435.361 208.094 426.92C201.316 407.231 202.556 405.053 203.152 404.006C203.514 403.367 204.093 402.956 204.781 402.848C204.909 402.827 205.039 402.818 205.174 402.818C207.196 402.818 210.139 404.891 217.906 419.944C222.571 428.984 226.724 438.389 227.809 440.971C228.14 441.753 228.405 442.119 228.553 442.279C228.989 441.91 229.667 440.744 230.124 439.577C223.776 419.707 211.025 388.757 203.254 388.757C203.132 388.757 203.01 388.767 202.892 388.786C202.172 388.896 201.439 388.95 200.712 388.95C189.652 388.95 181.287 376.335 178.905 372.321L174.126 374.061Z" fill="#161616"/>
<path d="M118.502 454.311L125.393 451.236C125.393 451.236 130.696 462.581 132.815 464.959C134.936 467.337 155.769 488.028 137.121 492.293C137.121 492.293 131.114 493.66 126.758 480.672C122.403 467.686 118.502 454.311 118.502 454.311Z" fill="#161616"/>
<path d="M125.878 452.262L125.312 451.145L119.593 439.878C119.593 439.878 97.8516 429.354 102.472 415.181C107.093 401.008 127.508 388.79 144.986 398.487C144.986 398.487 121.904 372.502 96.6757 401.478C71.7095 430.148 113.462 449.56 113.462 449.56C113.462 449.56 117.174 449.842 118.503 454.311L125.878 452.262Z" fill="#DEE5DC"/>
<path d="M118.502 455.877C117.827 455.877 117.206 455.436 117.003 454.757C115.993 451.361 113.369 451.121 113.342 451.119C113.155 451.105 112.972 451.058 112.803 450.978C111.919 450.567 91.132 440.734 87.6416 424.305C85.96 416.39 88.6023 408.362 95.4957 400.447C103.722 390.999 112.633 386.208 121.982 386.208C135.345 386.208 144.813 395.987 146.034 397.313C146.358 397.6 146.562 398.018 146.562 398.485C146.562 399.349 145.865 400.048 145.003 400.05C144.738 400.06 144.472 399.989 144.228 399.856C140.305 397.68 136.07 396.576 131.64 396.576C118.208 396.576 107.018 406.283 103.959 415.665C99.8173 428.371 120.07 438.366 120.275 438.467C120.582 438.615 120.833 438.861 120.988 439.166L127.273 451.551C127.485 451.969 127.498 452.462 127.31 452.891C127.12 453.321 126.749 453.642 126.297 453.769L118.922 455.818C118.781 455.858 118.641 455.877 118.502 455.877ZM113.924 448.044C114.927 448.218 117.843 449.006 119.455 452.422L123.619 451.264L118.432 441.044C115.064 439.31 96.3438 428.934 100.985 414.695C104.87 402.778 118.334 393.445 131.64 393.445C133.398 393.445 135.128 393.6 136.825 393.908C133.016 391.548 127.877 389.34 121.982 389.34C113.577 389.34 105.46 393.769 97.8539 402.503C91.6444 409.635 89.2378 416.747 90.6991 423.646C93.6884 437.744 111.819 447.013 113.924 448.044Z" fill="#161616"/>
<path d="M537.81 362.258C537.81 362.258 535.826 365.51 540.336 366.174L535.55 397.6C535.55 397.6 533.01 408.006 541.775 408.069C550.543 408.132 593.094 409.057 593.094 409.057L599.083 345.475L541.241 346.327L537.81 362.258Z" fill="#F7F9F7"/>
<path d="M613.539 401.834L603.039 345.691L599.083 345.475L594.944 389.436L594.339 411.017L613.539 401.834Z" fill="#F7F9F7"/>
<path d="M593.096 410.766C593.085 410.766 593.073 410.766 593.061 410.766C592.634 410.766 550.419 409.768 541.764 409.707C538.971 409.686 536.839 408.719 535.423 406.902C532.743 403.459 533.847 398.055 534.014 397.323L538.575 367.362C537.395 366.941 536.579 366.254 536.141 365.315C535.437 363.81 536.037 362.294 536.338 361.695L539.721 347.837C539.928 346.996 540.777 346.482 541.611 346.686C542.451 346.893 542.964 347.74 542.76 348.578L539.33 362.632C539.29 362.787 539.229 362.937 539.144 363.075C539.015 363.301 538.87 363.77 538.973 363.984C539.072 364.186 539.545 364.474 540.563 364.625C540.976 364.686 541.346 364.906 541.593 365.242C541.841 365.578 541.944 365.998 541.883 366.409L537.095 397.837C537.088 397.882 537.081 397.928 537.069 397.973C536.767 399.229 536.326 402.938 537.895 404.947C538.704 405.98 539.977 406.492 541.787 406.503C549.544 406.56 584.127 407.297 591.675 407.459L597.526 345.327C597.606 344.489 598.323 343.851 599.17 343.909L603.126 344.128C603.843 344.165 604.443 344.693 604.577 345.402L615.075 401.546C615.214 402.273 614.82 402.999 614.135 403.28L598.898 409.574C598.103 409.905 597.186 409.524 596.858 408.724C596.527 407.926 596.907 407.01 597.706 406.682L611.767 400.872L601.726 347.186L600.499 347.121L594.651 409.275C594.576 410.081 593.901 410.766 593.096 410.766Z" fill="#161616"/>
<path d="M613.539 403.402C613.387 403.402 613.23 403.379 613.075 403.33L593.875 397.337C593.049 397.081 592.59 396.203 592.845 395.377C593.103 394.553 593.98 394.093 594.803 394.349L614.006 400.342C614.829 400.597 615.291 401.475 615.033 402.302C614.824 402.973 614.208 403.402 613.539 403.402Z" fill="#161616"/>
<path d="M531.845 346.898C531.317 346.898 530.825 346.696 530.534 346.252C530.245 345.808 530.201 345.28 530.414 344.797L538.335 326.84C538.586 326.267 539.182 325.912 539.78 325.912L600.473 326.389C600.938 326.391 601.376 326.605 601.672 326.964C601.965 327.326 602.084 327.797 601.998 328.253L598.637 345.663C598.497 346.398 597.854 346.867 597.106 346.867L531.847 346.898C531.845 346.898 531.845 346.898 531.845 346.898ZM540.781 329.06L534.246 343.891L595.812 343.804L598.569 329.509L540.781 329.06Z" fill="#161616"/>
<path d="M599.292 345.487L603.039 345.691L600.459 327.959L599.292 345.487Z" fill="#161616"/>
<path d="M603.039 347.257C603.011 347.257 602.983 347.257 602.954 347.254L599.207 347.048C598.79 347.027 598.398 346.837 598.122 346.524C597.845 346.21 597.704 345.799 597.732 345.381L598.9 327.854C598.954 327.056 599.601 326.426 600.398 326.394C601.212 326.368 601.892 326.941 602.007 327.734L604.587 345.466C604.655 345.93 604.509 346.4 604.195 346.747C603.897 347.074 603.477 347.257 603.039 347.257ZM600.959 344.01L601.217 344.024L601.039 342.801L600.959 344.01Z" fill="#161616"/>
<path d="M563.391 394.696C563.316 394.696 563.243 394.691 563.168 394.682C562.331 394.562 561.74 393.799 561.834 392.959C561.853 392.785 563.691 375.535 557.632 367.974C557.092 367.298 557.2 366.315 557.873 365.772C558.549 365.233 559.531 365.34 560.073 366.014C563.529 370.331 564.763 377.018 565.124 382.699C567.091 378.572 570.095 374.479 574.51 373.199C575.341 372.958 576.206 373.436 576.447 374.267C576.687 375.098 576.208 375.967 575.38 376.206C571.441 377.349 568.829 381.852 567.33 385.427C565.621 389.509 564.936 393.363 564.929 393.403C564.795 394.159 564.137 394.696 563.391 394.696Z" fill="#946D42"/>
<path d="M548.871 353.721C548.871 353.721 549.066 382.07 561.738 373.096C570.834 366.655 554.783 354.855 548.871 353.721Z" fill="#946D42"/>
<path d="M570.834 376.751C570.775 376.993 581.196 382.924 584.88 369.317C584.88 369.317 574.065 363.202 570.834 376.751Z" fill="#946D42"/>
<path d="M536.715 340.635H534.837C533.974 340.635 533.275 339.935 533.275 339.069C533.275 338.205 533.974 337.504 534.837 337.504H536.715C537.578 337.504 538.279 338.205 538.279 339.069C538.279 339.935 537.578 340.635 536.715 340.635Z" fill="#161616"/>
<path d="M589.884 340.635H585.506C584.641 340.635 583.942 339.935 583.942 339.069C583.942 338.205 584.641 337.504 585.506 337.504H589.884C590.749 337.504 591.448 338.205 591.448 339.069C591.448 339.935 590.749 340.635 589.884 340.635ZM579.25 340.635H574.872C574.009 340.635 573.308 339.935 573.308 339.069C573.308 338.205 574.009 337.504 574.872 337.504H579.25C580.115 337.504 580.814 338.205 580.814 339.069C580.814 339.935 580.115 340.635 579.25 340.635ZM568.615 340.635H564.238C563.375 340.635 562.673 339.935 562.673 339.069C562.673 338.205 563.375 337.504 564.238 337.504H568.615C569.481 337.504 570.18 338.205 570.18 339.069C570.18 339.935 569.481 340.635 568.615 340.635ZM557.981 340.635H553.603C552.74 340.635 552.039 339.935 552.039 339.069C552.039 338.205 552.74 337.504 553.603 337.504H557.981C558.847 337.504 559.545 338.205 559.545 339.069C559.545 339.935 558.847 340.635 557.981 340.635ZM547.349 340.635H542.969C542.106 340.635 541.405 339.935 541.405 339.069C541.405 338.205 542.106 337.504 542.969 337.504H547.349C548.212 337.504 548.911 338.205 548.911 339.069C548.911 339.935 548.212 340.635 547.349 340.635Z" fill="#161616"/>
<path d="M598.642 340.635H596.14C595.275 340.635 594.576 339.935 594.576 339.069C594.576 338.205 595.275 337.504 596.14 337.504H598.642C599.505 337.504 600.206 338.205 600.206 339.069C600.206 339.935 599.505 340.635 598.642 340.635Z" fill="#161616"/>
<path d="M586.228 234.735L571.49 283.651C571.49 283.651 565.616 299.798 580.105 302.641C594.597 305.484 621.273 307.981 638.918 301.711C638.918 301.711 648.551 299.221 645.168 283.276C641.784 267.328 636.698 235.909 636.698 235.909C636.698 235.909 630.545 222.003 610.322 221.308C590.102 220.614 586.228 234.735 586.228 234.735Z" fill="#946D42"/>
<path d="M614.653 240.981C599.51 240.981 586.985 236.183 586.237 235.892C585.433 235.578 585.034 234.67 585.349 233.865C585.663 233.059 586.57 232.662 587.372 232.975C587.626 233.074 612.974 242.763 634.437 234.411C635.246 234.097 636.149 234.497 636.463 235.303C636.775 236.108 636.376 237.014 635.572 237.329C628.617 240.035 621.376 240.981 614.653 240.981Z" fill="#161616"/>
<path d="M621.31 225.808C621.165 225.808 621.015 225.787 620.867 225.743C620.039 225.498 619.566 224.627 619.812 223.798C619.821 223.765 620.891 219.937 618.982 217.143C617.755 215.343 615.493 214.279 612.257 213.98C608.76 213.659 606.207 214.287 604.666 215.853C602.671 217.88 602.94 220.957 602.945 220.987C603.036 221.847 602.415 222.618 601.557 222.711C600.701 222.811 599.927 222.182 599.836 221.323C599.814 221.138 599.383 216.761 602.436 213.656C604.666 211.388 608.073 210.448 612.543 210.862C616.766 211.252 619.807 212.779 621.582 215.402C624.314 219.436 622.872 224.472 622.809 224.685C622.609 225.367 621.986 225.808 621.31 225.808Z" fill="#161616"/>
<path d="M645.17 284.841C644.736 284.841 644.307 284.663 643.997 284.311C643.425 283.665 643.486 282.675 644.133 282.102L664.15 264.387C664.22 264.321 664.3 264.265 664.382 264.215C664.595 264.084 669.745 260.868 668.497 254.969C667.322 249.408 660.707 250.558 660.426 250.61C660.32 250.629 660.208 250.636 660.107 250.636L638.846 250.141C637.983 250.122 637.298 249.404 637.319 248.54C637.338 247.676 638.046 246.988 638.918 247.012L660.027 247.502C663.491 246.922 670.141 247.622 671.557 254.321C672.906 260.701 668.664 265.234 666.119 266.823L646.206 284.449C645.906 284.712 645.538 284.841 645.17 284.841Z" fill="#161616"/>
<path d="M646.673 275.776C646.239 275.776 645.803 275.595 645.496 275.241C644.928 274.588 644.994 273.6 645.646 273.032L656.808 263.281C656.876 263.222 656.948 263.171 657.024 263.124C657.12 263.063 659.577 261.478 658.991 258.704C658.489 256.333 655.624 256.711 655.298 256.76C655.206 256.777 655.103 256.781 655.014 256.781L643.078 256.504C642.213 256.483 641.531 255.767 641.552 254.901C641.571 254.037 642.297 253.352 643.151 253.373L654.948 253.648C657.103 253.34 661.169 253.882 662.051 258.056C663.01 262.591 659.533 265.208 658.785 265.71L647.702 275.391C647.405 275.649 647.039 275.776 646.673 275.776Z" fill="#161616"/>
<path d="M571.49 285.217C570.892 285.217 570.322 284.869 570.062 284.29L548.695 236.381C548.379 235.674 548.63 234.841 549.281 234.424L554.611 231.017C555.205 230.638 555.974 230.702 556.497 231.169L579.958 252.195C580.6 252.772 580.654 253.76 580.077 254.403C579.503 255.049 578.513 255.103 577.871 254.528L555.296 234.295L552.1 236.336L572.918 283.013C573.27 283.801 572.916 284.729 572.128 285.081C571.919 285.172 571.704 285.217 571.49 285.217Z" fill="#161616"/>
<path d="M535.78 235.395C533.721 235.395 532.705 234.555 532.218 233.851C531.406 232.677 531.043 230.487 533.932 226.719C535.833 224.238 538.76 221.568 542.174 219.2C547.27 215.665 552.494 213.47 555.812 213.47C557.871 213.47 558.886 214.31 559.374 215.014C561.862 218.61 555.958 225.13 549.418 229.666C544.322 233.2 539.095 235.395 535.78 235.395ZM555.81 216.601C553.622 216.601 549.106 218.201 543.956 221.774C540.802 223.962 538.122 226.394 536.413 228.625C534.673 230.894 534.708 231.953 534.788 232.067C534.816 232.107 535.076 232.265 535.78 232.265C537.967 232.265 542.484 230.665 547.635 227.092C554.858 222.082 557.275 217.481 556.802 216.797C556.776 216.759 556.513 216.601 555.81 216.601Z" fill="#161616"/>
<path d="M543.445 239.026C537.261 239.026 533.554 234.784 533.5 234.72C532.94 234.061 533.019 233.074 533.678 232.514C534.335 231.953 535.32 232.032 535.883 232.691C536.124 232.971 542.052 239.601 551.673 232.925C561.412 226.169 556.893 217.005 556.694 216.618C556.302 215.847 556.607 214.905 557.376 214.512C558.148 214.119 559.088 214.425 559.48 215.195C561.581 219.315 563.023 228.86 553.455 235.498C549.671 238.122 546.294 239.024 543.445 239.026Z" fill="#161616"/>
<path d="M635.005 280.628C634.259 280.628 633.6 280.095 633.466 279.334L627.543 245.761C627.393 244.911 627.961 244.099 628.812 243.948C629.661 243.798 630.474 244.366 630.624 245.216L636.545 278.79C636.695 279.642 636.128 280.454 635.277 280.604C635.185 280.621 635.094 280.628 635.005 280.628Z" fill="#DEE5DC"/>
<path d="M637.84 293.36C637.115 293.36 636.466 292.853 636.311 292.113L635.352 287.522C635.176 286.677 635.718 285.846 636.562 285.67C637.411 285.496 638.236 286.036 638.414 286.881L639.373 291.475C639.549 292.32 639.007 293.148 638.161 293.327C638.053 293.348 637.945 293.36 637.84 293.36Z" fill="#DEE5DC"/>
<path d="M691.048 553.012C690.342 553.012 689.721 552.535 689.538 551.847L657.596 431.251C657.476 430.791 657.57 430.298 657.854 429.915C658.137 429.535 658.581 429.303 659.057 429.286L747.047 426.317C747.77 426.279 748.424 426.775 748.611 427.481L780.305 547.392C780.425 547.85 780.334 548.341 780.052 548.721C779.771 549.103 779.332 549.336 778.859 549.357L691.114 553.009C691.093 553.009 691.072 553.012 691.048 553.012ZM661.122 432.35L692.24 549.829L776.783 546.31L745.905 429.488L661.122 432.35Z" fill="#161616"/>
<path d="M678.707 579.1C677.999 579.1 677.375 578.621 677.194 577.929L650.514 475.449C650.46 475.238 650.451 475.017 650.483 474.803L657.563 430.995C657.701 430.143 658.503 429.559 659.357 429.702C660.21 429.838 660.789 430.643 660.651 431.495L653.623 474.977L679.905 575.924L764.667 572.83L777.391 547.099C777.773 546.324 778.711 546.005 779.487 546.39C780.261 546.773 780.577 547.711 780.195 548.488L767.059 575.056C766.803 575.57 766.287 575.903 765.713 575.924L678.766 579.1C678.747 579.1 678.726 579.1 678.707 579.1Z" fill="#161616"/>
<path d="M678.707 579.1C678.482 579.1 678.255 579.051 678.039 578.95C677.258 578.579 676.925 577.645 677.295 576.863L689.637 550.775C690.007 549.993 690.938 549.662 691.719 550.031C692.5 550.402 692.833 551.333 692.462 552.115L680.121 578.206C679.854 578.769 679.293 579.1 678.707 579.1Z" fill="#161616"/>
<path d="M690.802 467.165C700.59 467.165 708.525 460.532 708.525 452.347C708.525 444.164 700.59 437.528 690.802 437.528C681.012 437.528 673.079 444.164 673.079 452.347C673.079 460.532 681.012 467.165 690.802 467.165Z" fill="#161616"/>
<path d="M731.461 467.165C741.248 467.165 749.184 460.532 749.184 452.347C749.184 444.164 741.248 437.528 731.461 437.528C721.673 437.528 713.738 444.164 713.738 452.347C713.738 460.532 721.673 467.165 731.461 467.165Z" fill="#161616"/>
<path d="M700.81 501.605C710.598 501.605 718.533 494.972 718.533 486.787C718.533 478.601 710.598 471.968 700.81 471.968C691.023 471.968 683.087 478.601 683.087 486.787C683.087 494.972 691.023 501.605 700.81 501.605Z" fill="#161616"/>
<path d="M741.469 501.605C751.256 501.605 759.192 494.972 759.192 486.787C759.192 478.601 751.256 471.968 741.469 471.968C731.681 471.968 723.746 478.601 723.746 486.787C723.746 494.972 731.681 501.605 741.469 501.605Z" fill="#161616"/>
<path d="M708.316 538.55C718.104 538.55 726.039 531.914 726.039 523.731C726.039 515.546 718.104 508.91 708.316 508.91C698.529 508.91 690.594 515.546 690.594 523.731C690.594 531.914 698.529 538.55 708.316 538.55Z" fill="#161616"/>
<path d="M748.975 538.55C758.763 538.55 766.698 531.914 766.698 523.731C766.698 515.546 758.763 508.91 748.975 508.91C739.187 508.91 731.252 515.546 731.252 523.731C731.252 531.914 739.187 538.55 748.975 538.55Z" fill="#161616"/>
<path d="M684.539 431.246C684.539 431.246 666.825 434.77 657.65 417.862C657.65 417.862 683.071 408.311 684.539 431.246Z" fill="#8DC73F"/>
<path d="M694.554 424.751C694.554 424.751 677.872 416.82 694.348 392.607C694.348 392.607 711.442 414.942 694.554 424.751Z" fill="#8DC73F"/>
<path d="M690.8 453.912C690.033 453.912 689.362 453.347 689.252 452.565C688.089 444.288 682.944 422.958 673.206 423.768C672.343 423.831 671.59 423.195 671.52 422.334C671.449 421.472 672.092 420.716 672.953 420.646C687.613 419.472 692.162 450.795 692.35 452.131C692.472 452.985 691.874 453.776 691.02 453.898C690.945 453.908 690.872 453.912 690.8 453.912Z" fill="#161616"/>
<path d="M694.554 453.973C693.693 453.973 692.995 453.246 692.992 452.384L692.784 404.684C692.779 403.818 693.475 403.252 694.341 403.252H694.348C695.208 403.252 695.907 403.792 695.909 404.654L696.118 452.448C696.123 453.314 695.426 453.973 694.561 453.973C694.561 453.973 694.556 453.973 694.554 453.973Z" fill="#161616"/>
<path d="M690.802 453.973C689.946 453.973 689.25 453.255 689.238 452.398C689.236 452.325 689.137 448.314 686.759 441.375C686.478 440.556 686.914 439.659 687.73 439.378C688.551 439.098 689.437 439.53 689.719 440.347C692.289 447.854 692.364 452.182 692.366 452.361C692.376 453.227 691.681 453.973 690.818 453.973C690.814 453.973 690.807 453.973 690.802 453.973Z" fill="#EAEFE8"/>
<path d="M694.554 453.973C693.705 453.973 693.006 453.26 692.99 452.405L692.783 441.037C692.767 440.173 693.454 439.57 694.319 439.57C694.329 439.57 694.338 439.57 694.348 439.57C695.196 439.57 695.895 440.11 695.909 440.967L696.118 452.419C696.134 453.283 695.447 453.973 694.582 453.973C694.573 453.973 694.563 453.973 694.554 453.973Z" fill="#EAEFE8"/>
<path d="M726.45 431.246C726.45 431.246 708.734 434.77 699.56 417.862C699.56 417.862 724.982 408.311 726.45 431.246Z" fill="#8DC73F"/>
<path d="M736.465 424.751C736.465 424.751 719.783 416.82 736.256 392.607C736.256 392.607 753.353 414.942 736.465 424.751Z" fill="#8DC73F"/>
<path d="M732.711 453.912C731.941 453.912 731.273 453.347 731.163 452.565C729.997 444.288 724.834 422.958 715.114 423.768C714.251 423.831 713.499 423.195 713.431 422.334C713.36 421.472 714 420.716 714.861 420.646C715.135 420.625 715.405 420.613 715.67 420.613C729.678 420.613 734.075 450.818 734.26 452.128C734.38 452.985 733.784 453.776 732.929 453.896C732.856 453.908 732.781 453.912 732.711 453.912Z" fill="#161616"/>
<path d="M736.465 453.973C735.604 453.973 734.905 453.246 734.901 452.384L734.692 404.684C734.69 403.818 735.386 403.252 736.249 403.252H736.256C737.117 403.252 737.815 403.792 737.82 404.654L738.029 452.448C738.031 453.314 737.335 453.973 736.472 453.973C736.472 453.973 736.467 453.973 736.465 453.973Z" fill="#161616"/>
<path d="M732.71 453.973C731.857 453.973 731.16 453.255 731.149 452.398C731.146 452.325 731.046 448.314 728.668 441.375C728.389 440.556 728.823 439.659 729.641 439.378C730.459 439.098 731.348 439.53 731.627 440.347C734.199 447.854 734.275 452.182 734.275 452.361C734.284 453.227 733.592 453.973 732.729 453.973C732.722 453.973 732.717 453.973 732.71 453.973Z" fill="#EAEFE8"/>
<path d="M736.465 453.973C735.613 453.973 734.917 453.26 734.901 452.405L734.692 441.037C734.678 440.173 735.365 439.57 736.228 439.57C736.237 439.57 736.247 439.57 736.256 439.57C737.107 439.57 737.804 440.11 737.82 440.967L738.029 452.419C738.043 453.283 737.356 453.973 736.493 453.973C736.483 453.973 736.474 453.973 736.465 453.973Z" fill="#EAEFE8"/>
<path d="M692.045 469.442C692.045 469.442 674.329 472.966 665.156 456.06C665.156 456.06 690.577 446.506 692.045 469.442Z" fill="#8DC73F"/>
<path d="M702.06 462.947C702.06 462.947 685.378 455.015 701.851 430.805C701.851 430.805 718.948 453.138 702.06 462.947Z" fill="#8DC73F"/>
<path d="M698.306 492.108C697.537 492.108 696.868 491.542 696.758 490.761C695.595 482.484 690.427 461.161 680.71 461.964C679.851 462.025 679.096 461.393 679.026 460.529C678.956 459.668 679.598 458.914 680.459 458.844C695.128 457.652 699.668 488.991 699.856 490.326C699.975 491.183 699.38 491.974 698.524 492.094C698.451 492.103 698.376 492.108 698.306 492.108Z" fill="#161616"/>
<path d="M702.06 492.169C701.199 492.169 700.501 491.444 700.496 490.58L700.287 442.88C700.285 442.016 700.981 441.45 701.844 441.45H701.851C702.712 441.45 703.413 441.99 703.415 442.852L703.624 490.646C703.629 491.509 702.932 492.169 702.067 492.169C702.067 492.169 702.062 492.169 702.06 492.169Z" fill="#161616"/>
<path d="M698.306 492.169C697.452 492.169 696.756 491.451 696.744 490.594C696.742 490.521 696.641 486.512 694.263 479.571C693.984 478.754 694.418 477.855 695.236 477.576C696.055 477.296 696.943 477.726 697.222 478.545C699.795 486.052 699.87 490.378 699.87 490.559C699.879 491.423 699.188 492.169 698.325 492.169C698.318 492.169 698.313 492.169 698.306 492.169Z" fill="#EAEFE8"/>
<path d="M702.06 492.169C701.209 492.169 700.512 491.455 700.496 490.601L700.287 479.233C700.273 478.369 700.96 477.766 701.823 477.766C701.833 477.766 701.842 477.766 701.851 477.766C702.703 477.766 703.399 478.308 703.415 479.162L703.624 490.617C703.638 491.481 702.951 492.169 702.088 492.169C702.079 492.169 702.069 492.169 702.06 492.169Z" fill="#EAEFE8"/>
<path d="M733.956 469.442C733.956 469.442 716.24 472.966 707.066 456.06C707.066 456.06 732.488 446.506 733.956 469.442Z" fill="#8DC73F"/>
<path d="M743.971 462.947C743.971 462.947 727.289 455.015 743.762 430.805C743.762 430.805 760.859 453.138 743.971 462.947Z" fill="#8DC73F"/>
<path d="M740.217 492.108C739.448 492.108 738.779 491.542 738.669 490.761C737.504 482.484 732.352 461.161 722.62 461.964C721.76 462.025 721.005 461.393 720.937 460.529C720.866 459.668 721.507 458.914 722.367 458.844C737.03 457.652 741.579 488.991 741.767 490.326C741.886 491.183 741.291 491.974 740.435 492.094C740.362 492.103 740.287 492.108 740.217 492.108Z" fill="#161616"/>
<path d="M743.971 492.169C743.11 492.169 742.411 491.441 742.407 490.58L742.198 442.88C742.196 442.016 742.892 441.448 743.755 441.448H743.762C744.623 441.448 745.321 441.988 745.326 442.852L745.535 490.646C745.54 491.509 744.841 492.169 743.978 492.169C743.978 492.169 743.973 492.169 743.971 492.169Z" fill="#161616"/>
<path d="M740.217 492.169C739.363 492.169 738.667 491.451 738.655 490.594C738.652 490.521 738.552 486.51 736.174 479.571C735.895 478.754 736.329 477.855 737.147 477.576C737.965 477.296 738.854 477.726 739.133 478.545C741.703 486.049 741.778 490.378 741.781 490.559C741.79 491.423 741.098 492.169 740.235 492.169C740.228 492.169 740.224 492.169 740.217 492.169Z" fill="#EAEFE8"/>
<path d="M743.971 492.169C743.119 492.169 742.423 491.455 742.407 490.601L742.198 479.233C742.184 478.369 742.871 477.766 743.734 477.766C743.743 477.766 743.753 477.766 743.762 477.766C744.613 477.766 745.31 478.308 745.326 479.162L745.535 490.617C745.549 491.481 744.862 492.169 743.999 492.169C743.989 492.169 743.98 492.169 743.971 492.169Z" fill="#EAEFE8"/>
<path d="M701.427 505.133C701.427 505.133 683.713 508.657 674.538 491.751C674.538 491.751 699.959 482.198 701.427 505.133Z" fill="#8DC73F"/>
<path d="M711.445 498.638C711.445 498.638 694.763 490.707 711.236 466.496C711.236 466.496 728.33 488.829 711.445 498.638Z" fill="#8DC73F"/>
<path d="M707.688 527.799C706.921 527.799 706.25 527.233 706.143 526.452C704.977 518.175 699.825 496.845 690.094 497.655C689.24 497.718 688.478 497.084 688.408 496.22C688.34 495.359 688.98 494.605 689.841 494.535C690.113 494.512 690.382 494.502 690.647 494.502C704.658 494.502 709.055 524.708 709.24 526.017C709.36 526.874 708.764 527.665 707.908 527.785C707.833 527.794 707.761 527.799 707.688 527.799Z" fill="#161616"/>
<path d="M711.444 527.86C710.584 527.86 709.883 527.132 709.88 526.271L709.672 478.571C709.667 477.707 710.366 477.141 711.229 477.141H711.236C712.096 477.141 712.795 477.679 712.8 478.543L713.008 526.337C713.011 527.201 712.314 527.86 711.451 527.86C711.451 527.86 711.447 527.86 711.444 527.86Z" fill="#161616"/>
<path d="M707.69 527.86C706.834 527.86 706.138 527.142 706.126 526.285C706.126 526.212 706.025 522.203 703.648 515.262C703.366 514.445 703.802 513.546 704.621 513.267C705.437 512.987 706.325 513.417 706.607 514.236C709.177 521.741 709.252 526.069 709.254 526.25C709.264 527.114 708.57 527.86 707.707 527.86C707.702 527.86 707.695 527.86 707.69 527.86Z" fill="#EAEFE8"/>
<path d="M711.442 527.86C710.593 527.86 709.894 527.147 709.88 526.292L709.672 514.924C709.655 514.06 710.342 513.457 711.208 513.457C711.217 513.457 711.226 513.457 711.236 513.457C712.085 513.457 712.783 513.999 712.8 514.854L713.006 526.309C713.023 527.172 712.336 527.86 711.473 527.86C711.463 527.86 711.454 527.86 711.442 527.86Z" fill="#EAEFE8"/>
<path d="M743.338 505.133C743.338 505.133 725.622 508.657 716.448 491.751C716.448 491.751 741.87 482.198 743.338 505.133Z" fill="#8DC73F"/>
<path d="M753.353 498.638C753.353 498.638 736.671 490.707 753.146 466.496C753.146 466.496 770.241 488.829 753.353 498.638Z" fill="#8DC73F"/>
<path d="M749.599 527.799C748.832 527.799 748.161 527.233 748.051 526.452C746.888 518.175 741.715 496.845 732.005 497.655C731.149 497.718 730.389 497.084 730.319 496.22C730.248 495.359 730.891 494.605 731.751 494.535C746.424 493.357 750.963 524.682 751.149 526.017C751.27 526.874 750.673 527.665 749.819 527.785C749.744 527.794 749.671 527.799 749.599 527.799Z" fill="#161616"/>
<path d="M753.353 527.86C752.492 527.86 751.794 527.135 751.791 526.271L751.582 478.414C751.578 477.55 752.274 476.839 753.139 476.834C754.031 476.82 754.706 477.526 754.711 478.39L754.917 526.259C754.922 527.125 754.225 527.86 753.36 527.86C753.36 527.86 753.358 527.86 753.353 527.86Z" fill="#161616"/>
<path d="M749.601 527.86C748.745 527.86 748.049 527.142 748.037 526.285C748.035 526.212 747.934 522.203 745.558 515.262C745.277 514.445 745.713 513.546 746.529 513.267C747.35 512.987 748.236 513.417 748.518 514.236C751.088 521.741 751.163 526.069 751.165 526.25C751.174 527.114 750.48 527.86 749.617 527.86C749.613 527.86 749.606 527.86 749.601 527.86Z" fill="#EAEFE8"/>
<path d="M753.353 527.86C752.504 527.86 751.805 527.147 751.789 526.292L751.582 514.924C751.566 514.06 752.253 513.457 753.116 513.457C753.125 513.457 753.135 513.457 753.146 513.457C753.995 513.457 754.694 513.999 754.708 514.854L754.917 526.309C754.933 527.172 754.246 527.86 753.381 527.86C753.371 527.86 753.362 527.86 753.353 527.86Z" fill="#EAEFE8"/>
<path d="M274.201 398.661L260.645 406.592C260.645 406.592 257.52 411.184 256.687 415.775C255.852 420.369 252.933 432.751 252.933 432.751L263.567 444.579L317.571 440.821C317.571 440.821 332.271 423.111 330.343 411.51L288.796 414.942L274.201 398.661Z" fill="white"/>
<path d="M263.567 446.145C263.126 446.145 262.702 445.957 262.406 445.626L251.772 433.798C251.427 433.418 251.294 432.892 251.411 432.392C251.441 432.268 254.33 419.996 255.149 415.496C256.033 410.632 259.22 405.909 259.356 405.71C259.487 405.517 259.658 405.358 259.857 405.24L273.413 397.309C274.054 396.933 274.872 397.062 275.367 397.614L289.443 413.318L330.214 409.951C331.021 409.879 331.753 410.451 331.886 411.254C333.908 423.42 319.395 441.077 318.776 441.821C318.501 442.15 318.108 442.354 317.681 442.382L263.677 446.14C263.64 446.143 263.605 446.145 263.567 446.145ZM254.642 432.312L264.219 442.964L316.78 439.307C318.999 436.504 329.351 422.874 328.946 413.198L288.925 416.501C288.44 416.543 287.959 416.35 287.633 415.986L273.889 400.656L261.754 407.757C261.096 408.79 258.875 412.475 258.225 416.057C257.508 420.01 255.306 429.479 254.642 432.312Z" fill="#161616"/>
<path d="M304.226 285.017L319.658 271.391C319.658 271.391 321.74 263.283 311.94 264.389L297.137 279.006L268.836 400.33C268.836 400.33 265.443 410.489 272.534 411.461C279.623 412.435 278.373 398.661 278.373 398.661L304.226 285.017Z" fill="#DEE5DC"/>
<path d="M273.23 413.076C272.935 413.076 272.628 413.055 272.321 413.012C270.245 412.728 268.625 411.731 267.631 410.13C265.352 406.459 267.026 400.839 267.328 399.907L295.615 278.649C295.683 278.36 295.831 278.097 296.039 277.891L310.843 263.274C311.094 263.028 311.417 262.873 311.767 262.833C315.657 262.394 318.441 263.234 320.042 265.304C322.117 267.983 321.212 271.628 321.172 271.783C321.095 272.086 320.926 272.358 320.692 272.567L305.64 285.855L279.951 398.774C280.078 400.44 280.441 407.837 277.306 411.273C276.227 412.451 274.82 413.076 273.23 413.076ZM298.558 279.802L270.358 400.687C270.346 400.734 270.334 400.781 270.318 400.827C269.856 402.224 268.949 406.327 270.29 408.482C270.792 409.285 271.594 409.754 272.747 409.912C272.914 409.935 273.078 409.947 273.23 409.947H273.233C273.948 409.947 274.508 409.698 274.996 409.163C277.046 406.916 276.994 400.776 276.816 398.804C276.799 398.64 276.811 398.475 276.849 398.313L302.701 284.67C302.774 284.348 302.948 284.06 303.194 283.844L318.218 270.577C318.321 269.835 318.403 268.288 317.561 267.213C316.731 266.152 315.069 265.704 312.646 265.894L298.558 279.802Z" fill="#161616"/>
<path d="M317.573 442.387C317.519 442.387 317.465 442.385 317.411 442.38L273.207 437.833C272.776 437.788 272.382 437.565 272.119 437.218L266.777 430.146C266.559 429.857 266.449 429.502 266.461 429.141L267.256 408.996C267.288 408.132 268.006 407.47 268.878 407.494C269.744 407.529 270.414 408.257 270.379 409.121L269.61 428.704L274.206 434.789L317.732 439.265C318.591 439.354 319.214 440.122 319.128 440.983C319.043 441.788 318.365 442.387 317.573 442.387Z" fill="#161616"/>
<path d="M236.148 327.8C235.285 327.8 234.584 327.098 234.584 326.234V318.093C234.584 317.23 235.285 316.528 236.148 316.528C237.013 316.528 237.712 317.23 237.712 318.093V326.234C237.712 327.098 237.013 327.8 236.148 327.8Z" fill="#161616"/>
<path d="M230.619 329.931C229.967 329.931 229.357 329.52 229.137 328.868L227.01 322.584C226.733 321.765 227.169 320.875 227.988 320.598C228.806 320.319 229.695 320.76 229.971 321.577L232.098 327.861C232.375 328.68 231.939 329.57 231.12 329.847C230.954 329.903 230.785 329.931 230.619 329.931Z" fill="#161616"/>
<path d="M223.04 329.929C222.669 329.929 222.299 329.797 222.001 329.532L218.474 326.391C217.829 325.816 217.771 324.826 218.345 324.18C218.918 323.535 219.907 323.478 220.552 324.053L224.079 327.194C224.723 327.769 224.782 328.76 224.208 329.405C223.9 329.753 223.469 329.929 223.04 329.929Z" fill="#161616"/>
<path d="M735.29 294.47C735.166 294.47 735.041 294.456 734.915 294.425C734.075 294.219 733.564 293.369 733.77 292.531L735.653 284.893C735.86 284.053 736.706 283.538 737.546 283.747C738.385 283.954 738.896 284.801 738.69 285.642L736.807 293.28C736.631 293.993 735.993 294.47 735.29 294.47Z" fill="#161616"/>
<path d="M730.183 293.557C729.493 293.557 728.863 293.099 728.675 292.402L727.329 287.437C727.104 286.602 727.596 285.743 728.431 285.515C729.261 285.292 730.122 285.782 730.349 286.618L731.693 291.583C731.918 292.418 731.428 293.278 730.593 293.503C730.457 293.54 730.319 293.557 730.183 293.557Z" fill="#161616"/>
<path d="M74.4505 157.917C74.4505 157.917 295.871 128.781 346.066 132.56C346.066 132.56 190.173 86.1664 74.4505 88.0448V157.917Z" fill="#8DC73F"/>
<path d="M46.2995 166.392C45.5346 166.392 44.8665 165.831 44.7532 165.051C44.6301 164.194 45.2229 163.401 46.0774 163.277C48.5708 162.917 296.079 127.251 345.871 130.999C346.732 131.064 347.377 131.815 347.314 132.678C347.248 133.54 346.491 134.179 345.637 134.122C296.173 130.39 49.0156 166.016 46.5248 166.376C46.4491 166.387 46.374 166.392 46.2995 166.392Z" fill="#161616"/>
<path d="M59.4355 134.919C58.6617 134.919 57.9894 134.344 57.886 133.555C57.7748 132.698 58.3789 132.057 59.2352 131.946C60.7273 131.752 209.12 112.084 267.992 111.458C268.004 111.458 268.013 111.458 268.025 111.458C268.874 111.458 269.57 111.993 269.587 112.846C269.605 113.71 268.918 114.353 268.055 114.37C209.352 115.562 61.1288 134.748 59.6381 134.942C59.5706 134.95 59.5023 134.919 59.4355 134.919Z" fill="#161616"/>
<path d="M75.0737 109.335C74.3175 109.335 73.6525 108.784 73.5305 108.012C73.3959 107.158 73.9791 106.357 74.8322 106.222C75.534 106.112 145.382 95.1468 176.233 94.1056C177.065 94.0805 177.819 94.753 177.848 95.6173C177.877 96.4813 177.201 97.2057 176.338 97.2346C145.678 98.269 76.019 109.205 75.319 109.315C75.2365 109.328 75.1544 109.335 75.0737 109.335Z" fill="#161616"/>
<path d="M264.282 128.981C265.084 128.981 265.734 128.33 265.734 127.527C265.734 126.725 265.084 126.074 264.282 126.074C263.48 126.074 262.831 126.725 262.831 127.527C262.831 128.33 263.48 128.981 264.282 128.981Z" fill="#161616"/>
<path d="M271.162 128.981C271.964 128.981 272.616 128.33 272.616 127.527C272.616 126.725 271.964 126.074 271.162 126.074C270.36 126.074 269.711 126.725 269.711 127.527C269.711 128.33 270.36 128.981 271.162 128.981Z" fill="#161616"/>
<path d="M267.41 122.719C268.212 122.719 268.862 122.068 268.862 121.266C268.862 120.463 268.212 119.812 267.41 119.812C266.608 119.812 265.959 120.463 265.959 121.266C265.959 122.068 266.608 122.719 267.41 122.719Z" fill="#161616"/>
<path d="M215.492 132.111C216.293 132.111 216.943 131.461 216.943 130.658C216.943 129.855 216.293 129.205 215.492 129.205C214.69 129.205 214.04 129.855 214.04 130.658C214.04 131.461 214.69 132.111 215.492 132.111Z" fill="#161616"/>
<path d="M222.372 132.111C223.174 132.111 223.823 131.461 223.823 130.658C223.823 129.855 223.174 129.205 222.372 129.205C221.57 129.205 220.92 129.855 220.92 130.658C220.92 131.461 221.57 132.111 222.372 132.111Z" fill="#161616"/>
<path d="M218.619 125.85C219.421 125.85 220.071 125.199 220.071 124.396C220.071 123.594 219.421 122.943 218.619 122.943C217.817 122.943 217.167 123.594 217.167 124.396C217.167 125.199 217.817 125.85 218.619 125.85Z" fill="#161616"/>
<path d="M157.943 138.373C158.745 138.373 159.395 137.722 159.395 136.92C159.395 136.117 158.745 135.466 157.943 135.466C157.141 135.466 156.491 136.117 156.491 136.92C156.491 137.722 157.141 138.373 157.943 138.373Z" fill="#161616"/>
<path d="M164.824 138.373C165.626 138.373 166.276 137.722 166.276 136.92C166.276 136.117 165.626 135.466 164.824 135.466C164.022 135.466 163.372 136.117 163.372 136.92C163.372 137.722 164.022 138.373 164.824 138.373Z" fill="#161616"/>
<path d="M161.071 132.111C161.873 132.111 162.523 131.46 162.523 130.658C162.523 129.855 161.873 129.204 161.071 129.204C160.269 129.204 159.619 129.855 159.619 130.658C159.619 131.46 160.269 132.111 161.071 132.111Z" fill="#161616"/>
<path d="M90.3863 145.887C91.188 145.887 91.838 145.237 91.838 144.434C91.838 143.631 91.188 142.981 90.3863 142.981C89.5843 142.981 88.9343 143.631 88.9343 144.434C88.9343 145.237 89.5843 145.887 90.3863 145.887Z" fill="#161616"/>
<path d="M97.2668 145.887C98.0685 145.887 98.7185 145.237 98.7185 144.434C98.7185 143.631 98.0685 142.981 97.2668 142.981C96.4648 142.981 95.8148 143.631 95.8148 144.434C95.8148 145.237 96.4648 145.887 97.2668 145.887Z" fill="#161616"/>
<path d="M93.5137 139.626C94.3157 139.626 94.9657 138.975 94.9657 138.172C94.9657 137.37 94.3157 136.719 93.5137 136.719C92.712 136.719 92.062 137.37 92.062 138.172C92.062 138.975 92.712 139.626 93.5137 139.626Z" fill="#161616"/>
<path d="M117.284 117.084C118.085 117.084 118.736 116.433 118.736 115.63C118.736 114.828 118.085 114.177 117.284 114.177C116.482 114.177 115.832 114.828 115.832 115.63C115.832 116.433 116.482 117.084 117.284 117.084Z" fill="#161616"/>
<path d="M124.164 117.084C124.966 117.084 125.616 116.433 125.616 115.63C125.616 114.828 124.966 114.177 124.164 114.177C123.362 114.177 122.712 114.828 122.712 115.63C122.712 116.433 123.362 117.084 124.164 117.084Z" fill="#161616"/>
<path d="M120.411 110.822C121.213 110.822 121.863 110.171 121.863 109.369C121.863 108.566 121.213 107.915 120.411 107.915C119.61 107.915 118.96 108.566 118.96 109.369C118.96 110.171 119.61 110.822 120.411 110.822Z" fill="#161616"/>
<path d="M172.955 112.074C173.757 112.074 174.407 111.423 174.407 110.621C174.407 109.818 173.757 109.167 172.955 109.167C172.154 109.167 171.504 109.818 171.504 110.621C171.504 111.423 172.154 112.074 172.955 112.074Z" fill="#161616"/>
<path d="M179.836 112.074C180.638 112.074 181.288 111.423 181.288 110.621C181.288 109.818 180.638 109.167 179.836 109.167C179.034 109.167 178.384 109.818 178.384 110.621C178.384 111.423 179.034 112.074 179.836 112.074Z" fill="#161616"/>
<path d="M176.083 105.812C176.885 105.812 177.535 105.162 177.535 104.359C177.535 103.556 176.885 102.906 176.083 102.906C175.281 102.906 174.631 103.556 174.631 104.359C174.631 105.162 175.281 105.812 176.083 105.812Z" fill="#161616"/>
<path d="M85.3823 100.177C86.184 100.177 86.834 99.5262 86.834 98.7237C86.834 97.9209 86.184 97.2702 85.3823 97.2702C84.5803 97.2702 83.9303 97.9209 83.9303 98.7237C83.9303 99.5262 84.5803 100.177 85.3823 100.177Z" fill="#161616"/>
<path d="M92.2629 100.177C93.0647 100.177 93.7147 99.5262 93.7147 98.7237C93.7147 97.9209 93.0647 97.2702 92.2629 97.2702C91.461 97.2702 90.811 97.9209 90.811 98.7237C90.811 99.5262 91.461 100.177 92.2629 100.177Z" fill="#161616"/>
<path d="M88.5097 93.9152C89.3114 93.9152 89.9615 93.2645 89.9615 92.462C89.9615 91.6592 89.3114 91.0085 88.5097 91.0085C87.7078 91.0085 87.0577 91.6592 87.0577 92.462C87.0577 93.2645 87.7078 93.9152 88.5097 93.9152Z" fill="#161616"/>
<path d="M678.941 321.509C678.941 321.509 677.051 311.199 678.54 306.869C678.54 306.869 687.308 316.279 687.763 323.941L678.941 321.509Z" fill="#946D42"/>
<path d="M770.438 351.278C770.438 351.278 797.053 360.296 790.034 375.434C783.018 390.57 730.157 388.229 718.929 390.1C718.929 390.1 727.819 372.878 739.513 372.359C751.207 371.838 755.072 374.399 755.072 374.399L752.143 368.998C752.143 368.998 764.873 367.667 770.436 370.69C776 373.711 776.518 362.024 769.01 358.033L770.438 351.278Z" fill="#161616"/>
<path d="M706.844 358.033C706.844 358.033 717.581 360.604 713.846 367.742C710.108 374.882 685.782 376.859 683.444 374.465C681.106 372.073 689.545 358.979 706.844 358.033Z" fill="#161616"/>
<path d="M689.222 377C683.732 377 682.71 375.953 682.327 375.561C681.765 374.983 680.972 373.622 681.997 370.986C684.016 365.787 692.528 357.249 706.759 356.47C706.909 356.461 707.062 356.477 707.207 356.51C707.875 356.669 713.773 358.188 715.644 362.312C716.24 363.622 716.65 365.754 715.231 368.47C711.857 374.913 696.249 377 689.222 377ZM684.623 373.378C685.059 373.556 686.403 373.868 689.222 373.868C697.426 373.868 710.239 371.26 712.46 367.017C713.14 365.718 713.25 364.603 712.797 363.611C711.787 361.381 708.234 360.024 706.694 359.611C696.284 360.254 689.072 365.622 686.044 370.049C684.79 371.885 684.604 373.007 684.623 373.378Z" fill="#DEE5DC"/>
<path d="M699.152 330.579C699.152 330.579 734.509 307.164 750.954 311.925C779.836 320.288 768.208 360.047 767.701 365.683H703.237L699.152 330.579Z" fill="#161616"/>
<path d="M767.701 366.934H703.237C702.445 366.934 701.776 366.34 701.685 365.552L697.598 330.605C697.53 330.018 697.797 329.443 698.287 329.117C699.495 328.316 728.037 309.488 745.978 309.488C747.969 309.488 749.788 309.723 751.39 310.188C778.19 317.946 771.88 351.329 769.807 362.298C769.53 363.758 769.312 364.913 769.261 365.51C769.188 366.317 768.51 366.934 767.701 366.934ZM704.63 363.803H766.348C766.452 363.219 766.583 362.524 766.735 361.716C768.883 350.353 774.588 320.164 750.52 313.195C749.202 312.814 747.673 312.62 745.976 312.62C730.577 312.62 705.594 328.145 700.817 331.206L704.63 363.803Z" fill="#DEE5DC"/>
<path d="M665.716 359.036C665.716 359.036 696.238 367.8 704.192 367.831C712.146 367.862 722.67 372.359 722.67 360.836L721.232 355.599C721.232 355.599 704.895 349.062 704.309 340.198C703.725 331.335 693.801 324.495 678.941 321.509C647.578 315.209 646.211 353.836 665.716 359.036Z" fill="#161616"/>
<path d="M715.056 370.286C713.276 370.286 711.351 370.056 709.489 369.836C707.697 369.622 705.845 369.401 704.187 369.397C696.109 369.364 666.539 360.902 665.287 360.54C654.711 357.721 650.282 346.325 651.497 337.036C652.62 328.438 658.698 319.251 672.385 319.251C674.552 319.251 676.862 319.495 679.249 319.974C695.3 323.199 705.254 330.72 705.871 340.095C706.297 346.557 717.525 352.428 721.814 354.144C722.269 354.327 722.611 354.712 722.742 355.184L724.18 360.421C724.217 360.557 724.236 360.695 724.236 360.836C724.236 364.348 723.338 366.819 721.492 368.392C719.978 369.683 717.933 370.286 715.056 370.286ZM672.385 322.382C660.721 322.382 655.549 330.163 654.597 337.445C653.555 345.412 657.239 355.155 666.119 357.524C666.452 357.618 696.552 366.235 704.199 366.265C706.037 366.272 707.979 366.502 709.857 366.725C711.712 366.946 713.461 367.155 715.056 367.155C717.147 367.155 718.547 366.791 719.464 366.01C720.54 365.092 721.077 363.467 721.106 361.043L719.926 356.747C716.601 355.301 703.324 348.998 702.749 340.299C702.231 332.424 693.215 325.973 678.632 323.042C676.447 322.603 674.345 322.382 672.385 322.382Z" fill="#DEE5DC"/>
<path d="M756.833 337.443C756.833 337.443 737.618 335.856 743.685 353.604C743.685 353.604 725.739 358.449 728.267 365.15" fill="#161616"/>
<path d="M728.265 366.718C727.634 366.718 727.038 366.331 726.801 365.704C726.264 364.275 726.363 362.768 727.087 361.35C729.421 356.792 738.041 353.691 741.72 352.548C740.339 347.599 740.784 343.618 743.054 340.701C747.366 335.159 756.572 335.846 756.959 335.882C757.82 335.952 758.46 336.708 758.39 337.569C758.319 338.431 757.557 339.062 756.704 339.001C756.596 338.994 748.776 338.431 745.516 342.63C743.706 344.963 743.589 348.484 745.164 353.095C745.305 353.505 745.27 353.954 745.066 354.336C744.864 354.719 744.51 355.001 744.093 355.113C740.768 356.015 731.728 359.144 729.871 362.777C729.545 363.413 729.5 363.993 729.728 364.599C730.033 365.406 729.627 366.31 728.818 366.615C728.635 366.686 728.45 366.718 728.265 366.718Z" fill="#DEE5DC"/>
<path d="M658.543 356.024C658.543 356.024 647.205 358.74 651.149 366.279C655.096 373.819 680.787 375.906 683.258 373.378C685.725 370.852 676.812 357.024 658.543 356.024Z" fill="#161616"/>
<path d="M677.159 375.702H677.157C669.75 375.702 653.307 373.643 649.764 366.873C648.573 364.596 648.427 362.503 649.33 360.514C651.323 356.123 657.901 354.536 658.18 354.47C658.327 354.435 658.477 354.437 658.63 354.447C673.619 355.266 682.579 364.258 684.705 369.73C685.768 372.467 684.954 373.744 684.375 374.338C683.976 374.746 682.916 375.702 677.159 375.702ZM658.696 357.601C657.061 358.043 653.251 359.503 652.174 361.881C651.689 362.958 651.806 364.16 652.535 365.552C653.588 367.566 657.195 369.383 662.429 370.765C666.952 371.96 672.596 372.57 677.157 372.57H677.159C680.255 372.57 681.676 372.347 682.093 372.157C682.133 371.817 682.002 370.761 680.754 368.857C677.612 364.05 669.958 358.294 658.696 357.601Z" fill="#DEE5DC"/>
<path d="M689.018 347.595C689.018 347.595 692.139 352.658 697.752 347.595H689.018Z" fill="#161616"/>
<path d="M693.006 351.411C692.72 351.411 692.436 351.393 692.153 351.35C689.32 350.947 687.845 348.674 687.686 348.416C687.233 347.682 687.461 346.717 688.194 346.264C688.926 345.811 689.885 346.036 690.34 346.761C690.373 346.811 691.217 348.069 692.622 348.257C693.813 348.412 695.187 347.801 696.704 346.433C697.347 345.853 698.336 345.905 698.913 346.548C699.492 347.191 699.441 348.179 698.798 348.759C696.845 350.522 694.899 351.411 693.006 351.411Z" fill="#DEE5DC"/>
<path d="M712.969 353.958C712.969 353.958 712.3 363.275 719.987 360.667C727.676 358.059 719.478 351.724 712.969 353.958Z" fill="#946D42"/>
<path d="M669.731 350.51C669.731 350.51 668.403 359.796 675.846 361.512L669.731 350.51Z" fill="#161616"/>
<path d="M675.849 363.078C675.731 363.078 675.614 363.064 675.497 363.038C668.5 361.425 667.653 353.994 668.183 350.287C668.305 349.433 669.1 348.832 669.954 348.961C670.807 349.083 671.4 349.874 671.281 350.728C671.236 351.048 670.261 358.618 676.198 359.986C677.04 360.181 677.565 361.021 677.37 361.862C677.204 362.587 676.559 363.078 675.849 363.078Z" fill="#DEE5DC"/>
<path d="M671.841 324.542C671.841 324.542 659.05 311.573 649.811 310.596C640.574 309.62 651.21 330.624 658.548 332.231" fill="#161616"/>
<path d="M658.548 333.797C658.438 333.797 658.325 333.785 658.212 333.76C651.663 332.325 643.775 318.779 644.743 312.784C645.172 310.136 647.133 308.737 649.977 309.04C659.659 310.063 672.416 322.896 672.953 323.443C673.56 324.056 673.553 325.049 672.939 325.657C672.324 326.265 671.335 326.258 670.727 325.643C670.603 325.516 658.22 313.058 649.647 312.152C648.162 311.995 647.946 312.573 647.832 313.284C647.107 317.774 654.034 329.64 658.883 330.703C659.725 330.886 660.26 331.722 660.077 332.567C659.915 333.297 659.268 333.797 658.548 333.797Z" fill="#DEE5DC"/>
<path d="M664.396 332.231C664.396 332.231 653.093 315.206 647.578 312.972C647.578 312.972 649.135 332.487 664.396 332.231Z" fill="#946D42"/>
<path d="M448.827 410.454C447.965 410.454 447.263 409.752 447.263 408.888V400.748C447.263 399.884 447.965 399.182 448.827 399.182C449.693 399.182 450.392 399.884 450.392 400.748V408.888C450.392 409.752 449.693 410.454 448.827 410.454Z" fill="#161616"/>
<path d="M454.612 412.585C454.446 412.585 454.277 412.557 454.111 412.501C453.292 412.224 452.854 411.334 453.133 410.515L455.26 404.231C455.536 403.414 456.425 402.973 457.243 403.252C458.062 403.529 458.5 404.419 458.221 405.238L456.094 411.522C455.874 412.172 455.264 412.585 454.612 412.585Z" fill="#161616"/>
<path d="M462.191 412.583C461.76 412.583 461.331 412.407 461.023 412.059C460.449 411.414 460.505 410.423 461.15 409.851L464.677 406.708C465.322 406.132 466.309 406.191 466.886 406.837C467.458 407.482 467.402 408.47 466.757 409.045L463.23 412.188C462.932 412.454 462.559 412.583 462.191 412.583Z" fill="#161616"/>
<path d="M367.522 271.426C366.917 271.426 366.343 271.074 366.087 270.483L362.853 263.013C362.511 262.22 362.874 261.298 363.667 260.955C364.46 260.612 365.381 260.976 365.723 261.769L368.957 269.239C369.3 270.032 368.936 270.952 368.143 271.297C367.939 271.384 367.731 271.426 367.522 271.426Z" fill="#161616"/>
<path d="M373.675 271.079C372.869 271.079 372.184 270.459 372.118 269.642L371.574 263.028C371.504 262.166 372.144 261.41 373.005 261.34C373.872 261.267 374.62 261.91 374.691 262.772L375.235 269.386C375.305 270.248 374.665 271.004 373.804 271.074C373.76 271.077 373.717 271.079 373.675 271.079Z" fill="#161616"/>
<path d="M380.628 268.063C380.407 268.063 380.185 268.016 379.971 267.917C379.188 267.553 378.848 266.621 379.211 265.837L381.198 261.551C381.561 260.767 382.492 260.427 383.275 260.791C384.058 261.154 384.398 262.086 384.035 262.87L382.046 267.156C381.784 267.727 381.219 268.063 380.628 268.063Z" fill="#161616"/>
<path d="M659.544 376.92C659.446 376.92 659.347 376.913 659.249 376.894C658.4 376.73 657.844 375.911 658.006 375.061L659.53 367.066C659.694 366.216 660.515 365.662 661.362 365.822C662.208 365.984 662.766 366.805 662.604 367.653L661.078 375.65C660.935 376.399 660.281 376.92 659.544 376.92Z" fill="#161616"/>
<path d="M653.459 377.927C652.69 377.927 652.019 377.361 651.912 376.577L650.999 370.005C650.882 369.15 651.478 368.359 652.334 368.239C653.192 368.124 653.98 368.718 654.097 369.575L655.009 376.148C655.129 377.002 654.531 377.793 653.675 377.913C653.602 377.922 653.529 377.927 653.459 377.927Z" fill="#161616"/>
<path d="M646.019 376.502C645.55 376.502 645.085 376.293 644.778 375.892L641.903 372.141C641.376 371.455 641.505 370.474 642.19 369.946C642.877 369.42 643.857 369.549 644.384 370.235L647.259 373.983C647.785 374.671 647.656 375.652 646.971 376.178C646.687 376.396 646.352 376.502 646.019 376.502Z" fill="#161616"/>
<path d="M615.964 140.888C615.11 140.888 614.414 140.35 614.4 139.494L614.18 125.793C614.165 124.929 614.855 124.253 615.718 124.24C616.59 124.215 617.294 124.933 617.308 125.798L617.528 139.434C617.54 140.299 616.853 140.887 615.987 140.887C615.98 140.888 615.971 140.888 615.964 140.888Z" fill="#161616"/>
<path d="M632.224 137.757C631.372 137.757 630.676 137.089 630.662 136.233L630.441 122.449C630.427 121.585 631.117 120.85 631.98 120.85C631.989 120.85 631.996 120.85 632.006 120.85C632.857 120.85 633.556 121.551 633.567 122.408L633.79 136.174C633.802 137.038 633.115 137.756 632.249 137.756C632.242 137.757 632.233 137.757 632.224 137.757Z" fill="#161616"/>
<path d="M646.61 137.757C645.759 137.757 645.06 136.973 645.046 136.117L644.828 122.392C644.814 121.527 645.501 120.85 646.366 120.85C646.375 120.85 646.382 120.85 646.392 120.85C647.243 120.85 647.939 121.437 647.953 122.292L648.174 136.117C648.188 136.982 647.499 137.757 646.636 137.757C646.626 137.757 646.619 137.757 646.61 137.757Z" fill="#161616"/>
<path d="M662.872 136.504C662.021 136.504 661.322 135.904 661.308 135.048L661.087 121.315C661.076 120.451 661.763 119.76 662.626 119.746C663.498 119.737 664.201 120.433 664.215 121.297L664.436 134.992C664.45 135.856 663.761 136.504 662.898 136.504C662.888 136.504 662.879 136.504 662.872 136.504Z" fill="#161616"/>
<path d="M677.882 135.252C677.03 135.252 676.334 134.531 676.32 133.675L676.099 119.883C676.085 119.019 676.772 118.297 677.638 118.284C678.498 118.261 679.214 118.954 679.225 119.819L679.448 133.627C679.46 134.491 678.773 135.252 677.907 135.252C677.9 135.252 677.891 135.252 677.882 135.252Z" fill="#161616"/>
<path d="M694.144 134.626C693.292 134.626 692.594 134.088 692.58 133.232L692.359 119.53C692.347 118.666 693.034 117.991 693.9 117.977C694.791 117.969 695.473 118.671 695.487 119.535L695.708 133.173C695.722 134.037 695.032 134.626 694.169 134.626C694.16 134.626 694.151 134.626 694.144 134.626Z" fill="#161616"/>
<path d="M708.53 134.626C707.676 134.626 706.98 133.972 706.966 133.116L706.745 119.358C706.731 118.494 707.421 117.789 708.283 117.776C709.177 117.752 709.859 118.454 709.873 119.319L710.094 133.065C710.105 133.929 709.418 134.627 708.555 134.627C708.546 134.626 708.537 134.626 708.53 134.626Z" fill="#161616"/>
<path d="M724.792 135.252C723.938 135.252 723.242 134.468 723.228 133.612L723.007 119.788C722.993 118.924 723.683 118.187 724.546 118.172C725.408 118.153 726.121 118.836 726.135 119.7L726.356 133.568C726.368 134.432 725.68 135.251 724.818 135.251C724.808 135.252 724.799 135.252 724.792 135.252Z" fill="#161616"/>
<path d="M739.176 135.878C738.324 135.878 737.626 135.292 737.614 134.436L737.391 120.711C737.379 119.847 738.066 119.16 738.932 119.146C739.795 119.119 740.505 119.833 740.519 120.698L740.74 134.38C740.754 135.244 740.067 135.879 739.201 135.879C739.192 135.878 739.185 135.878 739.176 135.878Z" fill="#161616"/>
<path d="M755.437 135.878C754.586 135.878 753.887 135.162 753.873 134.305L753.653 120.516C753.641 119.652 754.328 118.931 755.191 118.917C756.085 118.905 756.767 119.589 756.781 120.453L757.001 134.258C757.016 135.122 756.326 135.878 755.463 135.878C755.454 135.878 755.447 135.878 755.437 135.878Z" fill="#161616"/>
<path d="M769.821 139.009C768.97 139.009 768.274 138.177 768.259 137.321L768.039 123.473C768.025 122.608 768.714 121.859 769.577 121.846C770.471 121.826 771.153 122.503 771.167 123.367L771.388 137.28C771.399 138.145 770.712 139.009 769.847 139.009C769.84 139.009 769.831 139.009 769.821 139.009Z" fill="#161616"/>
<path d="M610.904 133.302C610.13 133.302 609.457 132.728 609.356 131.939C609.243 131.082 609.846 130.296 610.702 130.184C611.781 130.044 719.035 116.207 776.171 127.321C777.02 127.486 777.574 128.308 777.409 129.157C777.245 130.006 776.427 130.56 775.576 130.395C718.934 119.376 612.179 133.148 611.108 133.289C611.04 133.297 610.972 133.302 610.904 133.302Z" fill="#161616"/>
<path d="M704.668 67.4413L759.987 70.6534L769.603 85.4317L768.33 110.738L719.394 109.034L704.668 67.4413Z" fill="#161616"/>
<path d="M685.589 106.473V81.4154L704.616 67.4413L720.107 83.5039L719.33 109.034C719.328 109.034 697.473 105.86 685.589 106.473Z" fill="#161616"/>
<path d="M719.244 110.599C719.227 110.599 719.211 110.599 719.192 110.599C718.329 110.571 717.652 109.847 717.68 108.983L718.486 84.1153L703.422 68.5293C702.822 67.9082 702.839 66.9169 703.46 66.3158C704.081 65.7161 705.071 65.7315 705.671 66.3529L721.195 82.4152C721.49 82.7196 721.65 83.1309 721.635 83.5543L720.808 109.084C720.78 109.932 720.086 110.599 719.244 110.599Z" fill="#DEE5DC"/>
<path d="M708.321 108.744C708.258 108.744 708.192 108.74 708.126 108.732C707.27 108.626 706.661 107.845 706.766 106.987C707.151 103.85 707.505 94.9175 704.569 91.3008C703.826 90.3827 702.925 89.8912 701.819 89.7973C700.787 89.7076 699.994 89.9978 699.307 90.7015C696.31 93.7708 696.58 103.032 696.936 106.342C697.028 107.202 696.406 107.973 695.548 108.066C694.685 108.159 693.919 107.537 693.827 106.678C693.813 106.544 693.475 103.354 693.658 99.5831C693.918 94.2901 695.065 90.5663 697.07 88.5135C698.402 87.1479 700.135 86.5129 702.081 86.677C704.053 86.8436 705.709 87.7359 706.998 89.329C711.372 94.7208 709.932 106.856 709.871 107.37C709.772 108.163 709.1 108.744 708.321 108.744Z" fill="#DEE5DC"/>
<path d="M740.636 71.0048V57.6072H750.018V71.9984L740.636 71.0048Z" fill="#161616"/>
<path d="M299.585 67.1045C299.388 67.1045 299.193 67.0681 299.003 66.9923L293.795 64.9053C292.993 64.5842 292.602 63.6729 292.923 62.8702C293.244 62.0681 294.152 61.6775 294.956 61.9986L299.147 63.6781L301.393 61.1578C301.967 60.5127 302.955 60.4545 303.6 61.0313C304.244 61.6066 304.301 62.596 303.726 63.2415L300.75 66.5808C300.45 66.9209 300.021 67.1045 299.585 67.1045Z" fill="#161616"/>
<path d="M293.329 85.2632C293.134 85.2632 292.937 85.227 292.75 85.1512L287.539 83.0642C286.737 82.7429 286.348 81.8319 286.667 81.0291C286.99 80.227 287.898 79.8362 288.7 80.1575L292.893 81.8368L295.137 79.3165C295.711 78.6717 296.701 78.6139 297.346 79.1899C297.988 79.7655 298.047 80.7549 297.472 81.4004L294.497 84.7397C294.194 85.0799 293.767 85.2632 293.329 85.2632Z" fill="#161616"/>
<path d="M318.975 83.3846C318.781 83.3846 318.584 83.3485 318.396 83.2726L313.186 81.1856C312.384 80.8643 311.994 79.9533 312.313 79.1505C312.637 78.3484 313.544 77.9571 314.346 78.2789L318.539 79.9582L320.783 77.4379C321.358 76.7931 322.345 76.7353 322.992 77.3116C323.635 77.8869 323.693 78.8763 323.119 79.5219L320.143 82.8612C319.84 83.2013 319.414 83.3846 318.975 83.3846Z" fill="#161616"/>
<path d="M318.975 57.7119C318.781 57.7119 318.584 57.6755 318.396 57.5999L313.186 55.5129C312.384 55.1916 311.994 54.2806 312.313 53.4778C312.637 52.6757 313.544 52.2849 314.346 52.6062L318.539 54.2855L320.783 51.7652C321.358 51.1204 322.345 51.0619 322.992 51.6387C323.635 52.2142 323.693 53.2036 323.119 53.8491L320.143 57.1884C319.84 57.5286 319.414 57.7119 318.975 57.7119Z" fill="#161616"/>
<path d="M271.434 50.1979C271.24 50.1979 271.043 50.1617 270.855 50.0859L265.645 47.9989C264.843 47.6775 264.453 46.7665 264.775 45.9637C265.096 45.1624 266.006 44.7708 266.808 45.0922L270.998 46.7715L273.242 44.2511C273.817 43.6056 274.806 43.5481 275.451 44.1246C276.096 44.7002 276.152 45.6896 275.578 46.3351L272.602 49.6744C272.3 50.0145 271.873 50.1979 271.434 50.1979Z" fill="#161616"/>
<path d="M244.28 486.845C243.417 486.845 242.716 486.146 242.716 485.282V477.141C242.716 476.275 243.417 475.576 244.28 475.576C245.145 475.576 245.844 476.275 245.844 477.141V485.282C245.844 486.146 245.145 486.845 244.28 486.845Z" fill="#161616"/>
<path d="M250.065 488.977C249.899 488.977 249.73 488.951 249.563 488.892C248.745 488.615 248.306 487.728 248.585 486.909L250.712 480.625C250.989 479.806 251.878 479.367 252.696 479.646C253.514 479.923 253.953 480.81 253.674 481.63L251.547 487.913C251.327 488.566 250.717 488.977 250.065 488.977Z" fill="#161616"/>
<path d="M257.644 488.977C257.212 488.977 256.783 488.798 256.476 488.451C255.902 487.805 255.958 486.817 256.603 486.242L260.129 483.099C260.774 482.526 261.764 482.583 262.338 483.228C262.913 483.874 262.854 484.864 262.209 485.437L258.683 488.58C258.385 488.845 258.014 488.977 257.644 488.977Z" fill="#161616"/>
<path d="M321.219 360.359C320.356 360.359 319.658 359.66 319.658 358.794V350.653C319.658 349.789 320.356 349.09 321.219 349.09C322.085 349.09 322.783 349.789 322.783 350.653V358.794C322.783 359.66 322.085 360.359 321.219 360.359Z" fill="#161616"/>
<path d="M327.004 362.491C326.838 362.491 326.669 362.465 326.502 362.406C325.684 362.129 325.248 361.242 325.525 360.423L327.651 354.139C327.928 353.32 328.817 352.879 329.635 353.16C330.454 353.437 330.892 354.324 330.613 355.144L328.486 361.428C328.266 362.08 327.656 362.491 327.004 362.491Z" fill="#161616"/>
<path d="M334.583 362.491C334.154 362.491 333.725 362.312 333.415 361.965C332.841 361.32 332.897 360.331 333.544 359.756L337.069 356.613C337.716 356.038 338.703 356.097 339.277 356.742C339.852 357.388 339.793 358.376 339.149 358.951L335.622 362.094C335.324 362.359 334.953 362.491 334.583 362.491Z" fill="#161616"/>
<path d="M594.576 464.931C593.711 464.931 593.012 464.229 593.012 463.365V455.224C593.012 454.361 593.711 453.659 594.576 453.659C595.439 453.659 596.14 454.361 596.14 455.224V463.365C596.14 464.229 595.439 464.931 594.576 464.931Z" fill="#161616"/>
<path d="M600.361 467.06C600.194 467.06 600.026 467.034 599.859 466.977C599.041 466.701 598.602 465.811 598.879 464.992L601.008 458.708C601.285 457.891 602.174 457.45 602.99 457.729C603.808 458.006 604.246 458.896 603.97 459.715L601.841 465.999C601.62 466.649 601.013 467.06 600.361 467.06Z" fill="#161616"/>
<path d="M607.937 467.06C607.508 467.06 607.079 466.884 606.77 466.536C606.195 465.891 606.254 464.9 606.898 464.325L610.425 461.184C611.07 460.607 612.057 460.666 612.632 461.311C613.206 461.957 613.148 462.947 612.503 463.522L608.976 466.663C608.678 466.928 608.308 467.06 607.937 467.06Z" fill="#161616"/>
<path d="M500.12 325.922C499.257 325.922 498.556 325.22 498.556 324.356V316.216C498.556 315.349 499.257 314.65 500.12 314.65C500.986 314.65 501.684 315.349 501.684 316.216V324.356C501.684 325.22 500.986 325.922 500.12 325.922Z" fill="#161616"/>
<path d="M505.905 328.051C505.739 328.051 505.57 328.025 505.403 327.969C504.585 327.689 504.147 326.802 504.426 325.983L506.552 319.699C506.829 318.88 507.718 318.439 508.536 318.72C509.355 318.997 509.793 319.884 509.514 320.704L507.387 326.988C507.167 327.64 506.557 328.051 505.905 328.051Z" fill="#161616"/>
<path d="M513.484 328.051C513.055 328.051 512.626 327.875 512.316 327.527C511.742 326.88 511.798 325.891 512.443 325.316L515.97 322.175C516.614 321.6 517.604 321.657 518.179 322.302C518.753 322.948 518.694 323.938 518.05 324.513L514.523 327.654C514.225 327.919 513.854 328.051 513.484 328.051Z" fill="#161616"/>
<path d="M187.358 252.659C186.494 252.659 185.794 251.958 185.794 251.094V242.953C185.794 242.089 186.494 241.388 187.358 241.388C188.222 241.388 188.921 242.089 188.921 242.953V251.094C188.921 251.958 188.222 252.659 187.358 252.659Z" fill="#161616"/>
<path d="M193.143 254.791C192.977 254.791 192.807 254.763 192.641 254.706C191.822 254.429 191.385 253.54 191.662 252.72L193.79 246.439C194.067 245.62 194.956 245.178 195.773 245.458C196.592 245.735 197.029 246.624 196.752 247.444L194.623 253.727C194.403 254.38 193.795 254.791 193.143 254.791Z" fill="#161616"/>
<path d="M200.721 254.788C200.291 254.788 199.861 254.612 199.553 254.265C198.978 253.619 199.036 252.629 199.681 252.054L203.207 248.913C203.853 248.338 204.84 248.394 205.415 249.04C205.989 249.688 205.932 250.676 205.287 251.251L201.76 254.394C201.462 254.659 201.091 254.788 200.721 254.788Z" fill="#161616"/>
<path d="M291.195 200.061C290.332 200.061 289.631 199.36 289.631 198.495V190.355C289.631 189.49 290.332 188.79 291.195 188.79C292.058 188.79 292.759 189.49 292.759 190.355V198.495C292.759 199.36 292.058 200.061 291.195 200.061Z" fill="#161616"/>
<path d="M296.98 202.192C296.813 202.192 296.645 202.166 296.478 202.108C295.66 201.831 295.221 200.942 295.5 200.124L297.627 193.84C297.904 193.022 298.792 192.581 299.611 192.86C300.429 193.137 300.865 194.027 300.589 194.845L298.459 201.128C298.241 201.781 297.632 202.192 296.98 202.192Z" fill="#161616"/>
<path d="M304.559 202.191C304.127 202.191 303.698 202.014 303.388 201.666C302.816 201.021 302.873 200.031 303.517 199.456L307.044 196.314C307.689 195.739 308.676 195.796 309.253 196.443C309.825 197.088 309.769 198.079 309.124 198.653L305.597 201.795C305.3 202.061 304.927 202.191 304.559 202.191Z" fill="#161616"/>
<path d="M555.793 191.294C554.928 191.294 554.229 190.594 554.229 189.729V181.589C554.229 180.724 554.928 180.023 555.793 180.023C556.656 180.023 557.357 180.724 557.357 181.589V189.729C557.357 190.594 556.656 191.294 555.793 191.294Z" fill="#161616"/>
<path d="M561.578 193.425C561.412 193.425 561.241 193.398 561.074 193.342C560.258 193.064 559.82 192.175 560.096 191.357L562.226 185.073C562.502 184.255 563.391 183.815 564.207 184.093C565.025 184.37 565.464 185.26 565.187 186.078L563.058 192.362C562.838 193.014 562.23 193.425 561.578 193.425Z" fill="#161616"/>
<path d="M569.155 193.425C568.726 193.425 568.296 193.247 567.987 192.9C567.412 192.254 567.471 191.264 568.116 190.689L571.643 187.547C572.287 186.972 573.275 187.03 573.849 187.676C574.424 188.322 574.367 189.312 573.72 189.887L570.196 193.029C569.898 193.294 569.525 193.425 569.155 193.425Z" fill="#161616"/>
</svg>
